<svg version="1.1" id="Layer_1" xmlns="http://www.w3.org/2000/svg" xmlns:xlink="http://www.w3.org/1999/xlink" x="0px" y="0px"
	 width="100%" viewBox="0 0 2000 1500" enable-background="new 0 0 2000 1500" xml:space="preserve">
<path fill="#3C6D71" opacity="1.000000" stroke="none" 
	d="
M1371.000000,1501.000000 
	C914.000122,1501.000000 457.500275,1501.000000 1.000306,1501.000000 
	C1.000204,1001.000305 1.000204,501.000580 1.000102,1.000642 
	C667.666199,1.000428 1334.332397,1.000428 2000.998901,1.000214 
	C2000.999268,500.999359 2000.999268,1000.998718 2000.999634,1500.999023 
	C1791.166626,1501.000000 1581.333374,1501.000000 1371.000000,1501.000000 
M1440.841187,867.078308 
	C1421.433960,939.734924 1386.263672,1003.685791 1335.666138,1059.366211 
	C1227.707153,1178.170776 1056.971924,1231.776367 900.707153,1194.879395 
	C777.383301,1165.760376 681.747253,1097.267822 614.039612,990.163818 
	C588.020081,949.004578 569.924011,904.372620 558.744507,856.971252 
	C557.882812,853.317322 556.702515,850.348755 552.305786,851.527222 
	C547.435425,852.832642 550.720032,856.352051 551.227295,858.421265 
	C575.137390,955.959473 624.566467,1038.243652 701.526123,1102.772217 
	C806.907837,1191.131958 928.742188,1225.880859 1065.053345,1208.629883 
	C1121.122803,1201.534058 1174.171997,1183.880493 1223.412231,1156.051270 
	C1342.227905,1088.899780 1418.293579,988.955933 1451.200317,856.383118 
	C1451.558960,854.937805 1450.818604,851.926453 1450.063232,851.735657 
	C1447.609009,851.115540 1444.665039,850.729675 1443.879517,854.636719 
	C1443.092896,858.549500 1441.978760,862.396362 1440.841187,867.078308 
M1429.149292,575.205872 
	C1429.095947,575.047913 1429.051025,574.886536 1428.988159,574.732483 
	C1363.919556,415.501801 1214.453735,305.259430 1042.713501,289.796509 
	C978.094727,283.978424 914.776062,290.684998 853.562561,312.101288 
	C722.711731,357.880951 629.575012,444.771637 574.214905,571.915527 
	C563.958984,595.470215 556.403748,619.979614 550.513550,644.998840 
	C549.753113,648.228821 550.147583,649.587708 553.810852,649.640076 
	C558.387573,649.705505 558.137695,646.195312 558.790161,643.499512 
	C577.698608,565.373291 614.422241,496.748566 669.558228,438.314240 
	C778.530701,322.822906 935.329285,273.049164 1091.180542,303.886902 
	C1245.772095,334.475433 1376.224243,446.982361 1428.718384,595.387207 
	C1434.537476,611.837952 1438.933594,628.803589 1443.635010,645.629517 
	C1444.702148,649.448730 1446.837402,649.980774 1449.836304,649.471130 
	C1453.549927,648.839966 1451.757202,646.174561 1451.195557,644.391235 
	C1444.000977,621.548645 1436.710205,598.736328 1429.149292,575.205872 
M1138.963135,721.487244 
	C1138.963135,707.983215 1138.963135,694.479126 1138.963135,680.975098 
	C1139.388184,680.916809 1139.813354,680.858582 1140.238403,680.800354 
	C1140.825806,682.262695 1141.477295,683.702942 1141.990723,685.190735 
	C1146.983032,699.658325 1151.987183,714.122131 1156.896240,728.617981 
	C1157.800293,731.287659 1158.597046,733.196106 1162.176758,733.237549 
	C1165.864868,733.280334 1166.981201,731.568420 1167.985352,728.573914 
	C1172.850830,714.063110 1177.878052,699.606445 1182.877197,685.140686 
	C1183.409912,683.599548 1184.132812,682.124207 1184.767334,680.618286 
	C1185.180664,680.745544 1185.593994,680.872742 1186.007324,681.000000 
	C1186.007324,698.902466 1186.007324,716.804871 1186.007324,734.868591 
	C1188.549072,734.868591 1190.601074,734.868591 1192.711426,734.868591 
	C1192.711426,713.986206 1192.711426,693.551147 1192.711426,672.688538 
	C1190.879517,672.554077 1189.237793,672.570618 1187.647827,672.292114 
	C1182.089233,671.318420 1179.478027,673.525024 1177.839722,679.076233 
	C1173.887085,692.469971 1169.145752,705.631409 1164.696411,718.877747 
	C1164.151733,720.498901 1163.448242,722.066772 1162.339722,724.869507 
	C1161.267334,721.935669 1160.615234,720.272034 1160.047729,718.580139 
	C1155.337646,704.543274 1150.706543,690.479187 1145.857178,676.490784 
	C1145.306763,674.903198 1143.726562,672.814514 1142.326416,672.553650 
	C1139.155273,671.962585 1135.798584,672.367676 1132.229980,672.367676 
	C1132.229980,693.588379 1132.229980,714.139893 1132.229980,734.873169 
	C1134.537598,734.873169 1136.591919,734.873169 1138.963135,734.873169 
	C1138.963135,730.449341 1138.963135,726.464417 1138.963135,721.487244 
M1347.165405,711.997375 
	C1348.924561,714.325989 1350.683838,716.654602 1352.442993,718.983215 
	C1352.085449,718.956360 1351.727905,718.929504 1351.370361,718.902649 
	C1351.118530,723.291260 1350.866699,727.679932 1350.614990,732.068542 
	C1351.137939,732.778992 1350.581421,733.401306 1349.935303,733.909912 
	C1344.821655,737.936401 1344.629272,743.267944 1346.222046,748.862793 
	C1347.661865,753.920654 1351.838379,755.803833 1356.559692,756.076477 
	C1361.998779,756.390686 1367.550293,756.657654 1372.915161,755.929871 
	C1381.781494,754.727112 1385.588501,749.300354 1385.020874,740.109863 
	C1384.558472,732.623657 1380.652100,729.462097 1371.291260,729.016785 
	C1367.471436,728.834961 1363.585938,729.018433 1359.866699,728.315002 
	C1358.654175,728.085693 1356.933105,725.422913 1357.137085,724.142761 
	C1357.383423,722.597046 1359.194336,720.651184 1360.752319,720.117859 
	C1363.022949,719.340454 1365.710083,719.894104 1368.153198,719.484375 
	C1376.680664,718.054199 1380.023560,714.227539 1380.063965,705.672913 
	C1380.078613,702.564087 1379.458252,699.452332 1379.101929,696.099365 
	C1381.200562,695.784424 1383.413940,695.452271 1385.737061,695.103638 
	C1385.737061,693.344177 1385.737061,691.889648 1385.737061,690.368713 
	C1377.420410,689.917725 1369.299316,689.090576 1361.183472,689.137939 
	C1351.677734,689.193542 1346.377075,694.250000 1346.074463,702.859314 
	C1345.976929,705.638367 1346.624268,708.443481 1347.165405,711.997375 
M722.100220,729.465637 
	C722.251282,729.941772 722.464783,730.407898 722.543152,730.895691 
	C723.018921,733.856384 724.194336,736.178772 727.722961,735.257263 
	C731.873901,734.173157 729.540405,731.243713 728.985168,729.174377 
	C724.801331,713.580811 720.573669,697.997375 716.160522,682.467346 
	C712.725586,670.379944 715.877197,672.698975 702.813416,672.236816 
	C699.020203,672.102661 697.681946,673.603027 696.781555,677.082275 
	C693.362305,690.294556 689.607422,703.419800 685.992737,716.581604 
	C684.336975,722.610352 682.715454,728.648499 681.018921,734.901794 
	C684.560669,735.281006 687.580383,736.615051 688.794312,732.147034 
	C689.955627,727.872925 690.427856,721.961487 693.360840,720.005371 
	C696.638428,717.819397 702.344666,719.272949 706.994141,719.148621 
	C707.660095,719.130798 708.327209,719.136169 708.993469,719.147583 
	C721.563293,719.362854 718.409668,717.509827 722.100220,729.465637 
M761.520020,735.999878 
	C769.964783,734.792847 774.753357,729.576538 775.551453,721.468750 
	C776.195679,714.924438 776.197937,708.123962 775.153198,701.652039 
	C773.623840,692.178040 767.526978,688.115479 757.977478,689.128357 
	C755.212219,689.421631 752.557434,690.646790 749.802979,691.201355 
	C748.548828,691.453918 747.003296,691.490540 745.886597,690.978271 
	C741.291931,688.870850 739.464722,689.886475 739.456055,694.988953 
	C739.424805,713.457397 739.424377,731.926086 739.469421,750.394470 
	C739.475159,752.765686 738.827454,755.737732 742.801025,755.759583 
	C746.739868,755.781311 746.179565,752.796082 746.240051,750.436462 
	C746.361511,745.695862 746.276123,740.950012 746.276123,736.067322 
	C751.749512,736.067322 756.217468,736.067322 761.520020,735.999878 
M787.441101,706.504761 
	C787.442261,721.133484 787.418335,735.762268 787.469971,750.390869 
	C787.478333,752.757507 786.821228,755.728821 790.790771,755.759766 
	C794.722717,755.790405 794.180969,752.815857 794.240601,750.453308 
	C794.360046,745.715088 794.276001,740.971619 794.276001,736.137573 
	C799.392700,736.137573 803.531128,736.316956 807.648682,736.100342 
	C816.281067,735.646118 821.769409,731.708984 823.018433,723.285156 
	C824.071838,716.179932 824.133728,708.676697 823.096436,701.574280 
	C821.716064,692.122314 815.463501,688.105286 805.914124,689.125305 
	C803.311890,689.403320 800.819031,690.607361 798.218079,691.031738 
	C796.675476,691.283386 794.862488,691.223083 793.445068,690.638550 
	C789.552063,689.033142 787.535706,690.195312 787.458862,694.536926 
	C787.394165,698.192932 787.442688,701.851074 787.441101,706.504761 
M635.680054,689.033508 
	C631.966858,689.792358 628.253662,690.551147 623.961426,691.428284 
	C623.961426,684.342468 623.961426,677.438293 623.961426,670.392334 
	C621.509644,670.392334 619.626831,670.392334 617.887085,670.392334 
	C617.607117,671.042175 617.366211,671.341187 617.365234,671.640991 
	C617.296143,691.794006 617.181519,711.947632 617.353027,732.098816 
	C617.363525,733.329590 619.582275,735.501709 620.892151,735.596436 
	C626.854675,736.027893 632.901367,736.342834 638.839233,735.815491 
	C647.320007,735.062317 651.860474,730.802734 652.956238,722.206299 
	C653.746338,716.007385 653.830200,709.569824 653.130676,703.362549 
	C651.906921,692.503174 647.669800,689.204651 635.680054,689.033508 
M928.894165,695.107605 
	C931.222351,695.143066 933.603455,694.879211 935.867065,695.279724 
	C939.881775,695.989990 941.759216,699.625183 941.408569,704.602295 
	C941.106140,708.895691 937.848999,707.675720 935.467224,708.038879 
	C931.195251,708.690186 926.817383,708.862000 922.641479,709.880920 
	C915.487061,711.626404 912.399597,716.863953 913.336182,724.678894 
	C914.253601,732.333557 918.253540,736.060791 925.788391,736.190125 
	C927.616089,736.221497 929.484375,736.245483 931.270386,735.921753 
	C937.277527,734.832764 943.255432,731.650757 949.250854,735.952881 
	C949.368958,736.037659 949.608948,736.067566 949.736389,736.006592 
	C950.942688,735.430054 952.802185,735.078430 953.146729,734.162781 
	C953.488159,733.255554 952.617004,731.073669 951.723938,730.666870 
	C948.455872,729.178345 948.249084,726.567383 948.250916,723.614380 
	C948.255432,716.285889 948.363647,708.950439 948.086426,701.630798 
	C947.784058,693.647949 943.925293,689.453613 936.055420,689.187012 
	C930.442627,688.996826 924.785095,689.829834 919.161621,690.356323 
	C915.678589,690.682434 915.412048,692.833008 916.645081,696.037415 
	C920.427856,695.736267 924.208862,695.435242 928.894165,695.107605 
M1321.280029,708.053345 
	C1316.675781,708.702271 1312.022949,709.119019 1307.482056,710.070007 
	C1303.498657,710.904358 1300.739746,713.435974 1299.507080,717.513245 
	C1296.158691,728.589172 1302.158325,736.572571 1313.630127,736.139343 
	C1315.614136,736.064453 1317.669189,735.962219 1319.548584,735.397522 
	C1324.316284,733.964844 1328.907104,732.322876 1333.702759,735.599182 
	C1334.853271,736.385254 1336.885864,735.880493 1339.734741,736.036133 
	C1338.741699,733.699402 1338.488647,731.302979 1337.323608,730.715637 
	C1334.361450,729.222168 1333.892212,727.050781 1333.930786,724.187927 
	C1334.020386,717.531250 1334.032349,710.871216 1333.930786,704.214722 
	C1333.761230,693.107239 1329.468628,688.882385 1318.254028,689.046143 
	C1313.946167,689.109009 1309.640747,689.740295 1305.346436,690.221619 
	C1301.598633,690.641602 1300.492554,692.470215 1302.604126,696.063354 
	C1304.995728,695.849365 1307.302002,695.611145 1309.613525,695.445190 
	C1311.935791,695.278259 1314.262085,695.115234 1316.588867,695.069153 
	C1325.522949,694.892273 1327.997437,697.912659 1326.443970,707.436951 
	C1325.090576,707.615540 1323.633911,707.807739 1321.280029,708.053345 
M1239.770386,727.818909 
	C1239.567993,719.022156 1239.526001,710.217834 1239.115479,701.430786 
	C1238.745117,693.502441 1234.846069,689.422241 1226.930054,689.172791 
	C1221.486938,689.001343 1216.009033,689.829041 1210.551270,690.266785 
	C1206.846680,690.563965 1206.439819,692.661621 1207.552368,695.791443 
	C1209.244507,695.791443 1210.720947,695.846069 1212.191895,695.781311 
	C1216.836304,695.576782 1221.494019,694.985657 1226.117432,695.193542 
	C1230.582397,695.394470 1232.648560,698.940491 1232.520874,704.247925 
	C1232.409790,708.862061 1228.973022,707.667664 1226.415894,708.065735 
	C1221.663696,708.805359 1216.771606,709.035217 1212.183105,710.340210 
	C1206.031616,712.089844 1203.407227,717.786255 1204.499878,725.232483 
	C1205.528076,732.240967 1209.231812,736.130310 1215.894531,736.050049 
	C1220.478149,735.994812 1225.034912,734.708618 1229.630371,734.225952 
	C1231.751587,734.003113 1233.935913,734.399475 1236.092651,734.491028 
	C1238.825562,734.606995 1243.127197,735.812378 1243.996216,734.589355 
	C1246.502319,731.062988 1241.551636,730.641479 1239.770386,727.818909 
M1423.606079,692.841980 
	C1411.411499,684.639038 1396.367798,688.978455 1393.710815,702.359802 
	C1392.238159,709.777344 1392.879883,717.908386 1394.082764,725.477173 
	C1395.190063,732.445129 1400.239136,735.901062 1407.391724,736.022949 
	C1413.690674,736.130371 1420.005249,735.377380 1426.310547,734.966797 
	C1426.761353,734.937439 1427.192383,734.601013 1427.725342,734.366577 
	C1427.725342,733.029785 1427.725342,731.742981 1427.725342,730.160278 
	C1421.903320,730.160278 1416.270386,730.281189 1410.644775,730.129333 
	C1403.734619,729.942810 1400.819824,727.142029 1399.504517,720.391846 
	C1398.834106,716.951477 1399.691650,715.397278 1403.392212,715.456665 
	C1410.555420,715.571716 1417.723755,715.386169 1424.886841,715.503357 
	C1427.816040,715.551208 1429.312378,714.378540 1429.381592,711.502319 
	C1429.540771,704.905823 1429.116211,698.459351 1423.606079,692.841980 
M1011.945740,717.741821 
	C1012.932312,728.665527 1016.253906,734.064697 1024.102417,735.447510 
	C1028.742065,736.264893 1033.710815,736.033569 1038.420166,735.419800 
	C1043.804688,734.718079 1047.772095,731.169006 1048.744507,725.860901 
	C1049.868774,719.723877 1050.730591,713.313721 1050.216431,707.146423 
	C1048.993774,692.480652 1040.383179,686.586487 1025.839722,689.371216 
	C1018.894653,690.701050 1014.224548,694.545227 1013.022949,701.530396 
	C1012.157898,706.559448 1012.250732,711.753296 1011.945740,717.741821 
M590.986877,689.187988 
	C588.165588,689.186829 585.310730,688.905396 582.529297,689.237793 
	C574.594055,690.186035 569.482544,694.089966 568.493286,701.820190 
	C567.559509,709.117737 567.574768,716.750488 568.616333,724.029114 
	C569.740784,731.886780 574.893494,735.501892 582.937866,736.062073 
	C585.581360,736.246094 588.265930,736.247070 590.904602,736.018250 
	C598.648010,735.346741 603.627808,731.646667 604.756714,724.029663 
	C605.764404,717.229980 605.751587,710.150146 605.176636,703.278625 
	C604.524292,695.481628 599.796021,690.633057 590.986877,689.187988 
M1252.891846,728.211304 
	C1253.024658,735.650146 1253.721191,736.296814 1259.797241,734.131104 
	C1259.797241,723.788879 1259.755615,713.305969 1259.842163,702.824219 
	C1259.855103,701.257996 1259.969238,698.793579 1260.889160,698.283997 
	C1265.777832,695.576294 1271.091431,694.043091 1276.699585,695.849731 
	C1281.730469,697.470337 1281.859985,702.010925 1282.000977,706.134949 
	C1282.274048,714.124878 1282.179443,722.127075 1282.263306,730.123901 
	C1282.319092,735.440857 1282.978516,735.888245 1288.686035,734.606262 
	C1288.686035,724.144104 1289.354248,713.622498 1288.510986,703.223511 
	C1287.533447,691.169373 1280.674927,686.890137 1268.792725,689.586670 
	C1266.853638,690.026733 1265.001099,690.842590 1263.066772,691.312805 
	C1262.066162,691.556030 1260.790405,691.802063 1259.953003,691.397156 
	C1254.569702,688.794312 1252.946899,689.705200 1252.911499,695.785950 
	C1252.850342,706.283264 1252.892700,716.781128 1252.891846,728.211304 
M1091.185181,714.540161 
	C1091.186035,719.704712 1091.165161,724.869446 1091.193359,730.033813 
	C1091.223755,735.613281 1092.050903,736.152466 1097.963623,734.347595 
	C1097.963623,725.430176 1097.982178,716.443481 1097.945190,707.457031 
	C1097.939087,705.965393 1097.763550,704.463867 1097.542236,702.985413 
	C1095.779053,691.205078 1089.657593,686.978821 1077.989502,689.514771 
	C1076.207275,689.902161 1074.505981,690.778076 1072.716553,690.982056 
	C1071.228149,691.151611 1069.529907,690.985474 1068.161743,690.407043 
	C1064.810791,688.990234 1061.953247,690.360413 1061.913330,694.043274 
	C1061.779541,706.369934 1061.741699,718.701477 1062.011597,731.023621 
	C1062.043579,732.478760 1064.017700,734.832947 1065.425049,735.116882 
	C1068.208008,735.678345 1068.768677,733.364502 1068.744629,730.885559 
	C1068.665283,722.723022 1068.716919,714.559265 1068.719238,706.395935 
	C1068.721924,697.362732 1069.113647,696.887695 1078.188110,695.398071 
	C1079.493408,695.183838 1080.841797,695.114380 1082.165527,695.151245 
	C1086.744751,695.278503 1089.872925,697.366760 1090.446533,702.115662 
	C1090.904175,705.904114 1090.953003,709.741943 1091.185181,714.540161 
M963.287476,689.576660 
	C961.650818,689.791565 960.014160,690.006470 957.971924,690.274597 
	C958.072449,692.080383 958.169739,693.826477 958.268188,695.594482 
	C960.243103,695.832703 961.866577,696.028503 964.072998,696.294556 
	C964.072998,700.001648 963.977844,703.632202 964.093323,707.255981 
	C964.315430,714.227905 964.471619,721.210632 965.020203,728.160034 
	C965.335632,732.155701 967.722351,735.282715 971.807678,735.746216 
	C976.325989,736.258850 980.947388,735.863342 985.275940,735.863342 
	C986.754639,730.717163 984.796631,729.713745 980.914734,729.973450 
	C977.244995,730.218872 972.094177,731.401367 971.738708,725.952332 
	C971.096375,716.105042 971.556946,706.185913 971.556946,695.798401 
	C976.046143,695.798401 980.296753,695.798401 984.778503,695.798401 
	C984.778503,693.594177 984.778503,691.894104 984.778503,689.728149 
	C980.088135,689.728149 975.817200,689.728149 970.965942,689.728149 
	C970.965942,685.033875 970.965942,680.794495 970.965942,676.267029 
	C968.473755,676.267029 966.583374,676.267029 963.811279,676.267029 
	C963.811279,680.646973 963.811279,684.756836 963.287476,689.576660 
M874.680786,714.321533 
	C875.002258,717.460510 875.144897,720.630554 875.682190,723.732117 
	C876.821472,730.308533 880.549011,734.960571 887.307129,735.689453 
	C893.309631,736.336853 899.437195,735.825317 905.597961,735.825317 
	C905.597961,733.117188 905.597961,731.700745 905.597961,730.014465 
	C901.006958,730.014465 896.702209,730.174316 892.414001,729.975891 
	C886.406311,729.697876 883.214417,727.350159 882.509949,721.458008 
	C881.825134,715.730164 881.808167,709.808594 882.422302,704.071045 
	C883.046448,698.239746 886.114014,695.785767 892.194519,695.298279 
	C895.647461,695.021423 899.169434,695.695923 902.645386,695.560120 
	C903.710266,695.518555 905.662170,694.061218 905.574524,693.513245 
	C905.374023,692.258606 904.306458,690.312683 903.343140,690.154114 
	C899.258240,689.482056 895.068420,688.966431 890.943542,689.118164 
	C881.982910,689.447876 877.142639,693.657532 875.457336,702.477112 
	C874.775757,706.043884 874.893250,709.763489 874.680786,714.321533 
M555.768066,689.503052 
	C555.752319,685.011963 555.951782,680.503357 555.586670,676.040833 
	C555.480286,674.739685 553.763367,673.570251 552.784668,672.340515 
	C551.472473,673.448059 549.758911,674.330750 548.973267,675.733215 
	C548.327881,676.885376 548.758850,678.654907 548.756958,680.150879 
	C548.737976,695.453857 548.764465,710.757019 548.693665,726.059692 
	C548.671875,730.771240 548.108337,735.064880 541.831116,735.614502 
	C537.887512,735.959778 537.648804,738.613647 539.074463,741.676880 
	C550.932617,742.659607 555.121704,739.172058 555.759399,727.926392 
	C555.844116,726.433350 555.824158,724.933411 555.822388,723.436646 
	C555.809265,712.458374 555.788452,701.480042 555.768066,689.503052 
M835.990601,686.503052 
	C835.990601,702.579529 835.990601,718.656067 835.990601,735.286499 
	C838.653442,735.091675 840.672119,734.944031 842.576294,734.804749 
	C842.576294,713.002991 842.576294,691.771423 842.576294,670.349121 
	C840.330139,670.349121 838.433411,670.349121 835.990601,670.349121 
	C835.990601,675.597046 835.990601,680.551208 835.990601,686.503052 
M554.355652,779.809692 
	C551.052429,779.537354 547.733704,779.385254 544.449585,778.963989 
	C539.748413,778.360901 537.892517,780.041748 538.126770,784.989197 
	C538.488708,792.635315 538.102295,800.313416 538.248047,807.973877 
	C538.463684,819.304443 535.688843,818.744507 549.438599,818.429199 
	C558.830200,818.213867 563.437683,811.061340 560.084290,802.225464 
	C559.349609,800.289551 557.872437,798.635376 556.747192,796.845337 
	C561.501709,788.998962 561.029663,784.079712 554.355652,779.809692 
M1455.037842,698.314941 
	C1456.463135,697.852356 1457.857544,697.196655 1459.319458,696.962463 
	C1464.265381,696.169800 1464.308838,693.236877 1462.771118,688.706787 
	C1457.504639,690.836487 1452.519287,692.852478 1447.460205,694.898315 
	C1447.067383,693.186340 1446.714722,691.649719 1446.385010,690.212952 
	C1444.271851,690.212952 1442.496216,690.212952 1440.419189,690.212952 
	C1440.419189,705.211548 1440.419189,719.920959 1440.419189,734.806335 
	C1442.760742,734.806335 1444.769897,734.806335 1447.021240,734.806335 
	C1447.021240,725.969238 1447.490356,717.609070 1446.866455,709.331238 
	C1446.403687,703.189941 1448.615845,699.958374 1455.037842,698.314941 
M1067.181519,806.089600 
	C1064.845215,798.465698 1062.610718,790.807922 1060.090698,783.245239 
	C1059.554810,781.636963 1057.978882,780.375244 1056.882202,778.953857 
	C1055.898926,780.308105 1054.488892,781.524963 1054.001465,783.038879 
	C1050.794189,792.999756 1047.717773,803.004822 1044.788696,813.050964 
	C1044.364380,814.506348 1044.958252,816.258484 1045.081055,817.873352 
	C1046.085327,816.673828 1047.111328,815.491821 1048.088379,814.270508 
	C1049.406494,812.622986 1050.443481,809.805908 1052.023560,809.468506 
	C1061.122437,807.525330 1063.641724,809.067017 1067.125854,817.452759 
	C1067.226196,817.694092 1067.629395,817.809631 1068.803345,818.590149 
	C1069.193481,816.982361 1069.942261,815.633606 1069.716187,814.475159 
	C1069.209961,811.882812 1068.218628,809.385132 1067.181519,806.089600 
M1000.677612,726.381226 
	C1000.677612,714.469849 1000.677612,702.558472 1000.677612,690.532288 
	C997.178284,689.883240 993.972656,689.112305 993.912964,693.518799 
	C993.739624,706.311096 993.781616,719.109192 994.032288,731.899292 
	C994.055054,733.060425 996.186584,734.180298 997.338867,735.319336 
	C998.445007,734.153320 999.939514,733.156433 1000.542542,731.771362 
	C1001.091003,730.511597 1000.670776,728.830139 1000.677612,726.381226 
M856.481140,731.781372 
	C857.754822,732.963379 859.028442,734.145386 860.302124,735.327515 
	C861.303772,733.855164 863.145081,732.399353 863.174316,730.907898 
	C863.411926,718.791077 863.291321,706.667542 863.326538,694.546204 
	C863.334290,691.894775 862.773499,689.896667 859.534363,690.002380 
	C856.366577,690.105835 856.442810,692.304016 856.447205,694.568115 
	C856.470886,706.689575 856.460876,718.811035 856.481140,731.781372 
M980.715027,790.948914 
	C980.710205,787.955933 980.928284,784.938721 980.607483,781.979980 
	C980.444702,780.478638 979.310242,779.082581 978.615112,777.638977 
	C978.077881,779.036438 977.091614,780.428528 977.074829,781.832153 
	C976.945435,792.638672 976.986633,803.447388 977.028564,814.255249 
	C977.033325,815.485107 977.369446,816.713684 977.403992,816.946411 
	C980.556396,817.535767 982.896851,818.352722 985.220703,818.307983 
	C987.893250,818.256531 991.037659,818.185181 993.123047,816.818909 
	C999.083557,812.913696 999.419434,799.291077 993.660767,795.034973 
	C991.633484,793.536743 988.497559,793.283386 985.814392,793.031250 
	C984.388794,792.897400 982.848694,793.982239 981.141235,794.595642 
	C980.965759,793.402344 980.847595,792.599121 980.715027,790.948914 
M1136.225464,829.400757 
	C1136.426270,825.336365 1136.627075,821.271912 1136.853638,816.687561 
	C1138.286011,817.247070 1139.037231,817.490845 1139.745483,817.825317 
	C1143.952881,819.812866 1147.548950,818.795776 1150.562744,815.494751 
	C1153.584961,812.184570 1154.398804,802.140259 1152.013428,797.876160 
	C1149.830811,793.974731 1146.456055,792.292236 1141.995117,792.889282 
	C1141.502563,792.955261 1141.021851,793.106140 1140.529907,793.181335 
	C1138.437744,793.501282 1136.343506,793.807495 1134.250000,794.118713 
	C1133.938232,793.409180 1133.674316,793.494812 1133.672607,793.585205 
	C1133.453613,805.347961 1133.225708,817.110840 1133.171143,828.874573 
	C1133.169189,829.284302 1134.905884,829.702209 1136.225464,829.400757 
M1103.033081,818.732178 
	C1111.120728,815.593018 1114.697876,802.568909 1108.652344,796.366699 
	C1106.581665,794.242188 1102.609741,793.559387 1099.381836,793.108032 
	C1096.935791,792.766052 1094.292114,793.836182 1091.408691,794.334473 
	C1089.648315,802.546448 1090.625610,828.535950 1093.744751,831.306641 
	C1094.155640,826.173462 1094.518921,821.635437 1094.880493,817.118469 
	C1097.793823,817.796631 1100.018677,818.314453 1103.033081,818.732178 
M906.827759,782.407898 
	C907.611328,783.793945 909.018372,785.156555 909.071655,786.570129 
	C909.315613,793.038696 909.176270,799.521484 909.182739,805.999207 
	C909.186707,809.996948 908.854492,813.983826 904.015198,814.970215 
	C899.320190,815.927124 895.383972,814.939331 894.006653,809.437317 
	C893.837708,808.762512 892.693542,808.331787 892.001404,807.788025 
	C891.532654,808.703125 890.523804,809.746887 890.704895,810.507202 
	C891.112000,812.216492 891.752136,814.132935 892.933105,815.346375 
	C896.518372,819.030090 901.018066,819.554749 905.829773,818.181091 
	C910.479980,816.853516 912.684143,813.395508 912.825073,808.933533 
	C913.102661,800.139221 913.042358,791.329041 912.854858,782.531189 
	C912.829895,781.356506 911.377075,779.366089 910.369446,779.217346 
	C907.362000,778.773560 904.247131,779.057983 901.174194,779.057983 
	C901.050659,779.724915 900.927185,780.391846 900.803711,781.058777 
	C902.523193,781.487976 904.242737,781.917175 906.827759,782.407898 
M600.923340,797.894714 
	C597.179565,793.134155 593.091431,791.499023 588.458130,793.264893 
	C583.479919,795.162231 581.423279,799.036194 581.705688,804.271240 
	C581.777222,805.596680 581.753113,806.928772 581.735352,808.257263 
	C581.672302,812.958313 583.839172,816.285034 588.191162,817.890015 
	C592.760437,819.575195 597.203308,819.501160 602.293213,814.777649 
	C595.131287,814.295532 586.133301,818.966431 585.326721,807.632874 
	C586.243896,807.312378 586.697327,807.028381 587.159668,807.013184 
	C589.814209,806.925659 592.470886,806.899841 595.126892,806.856934 
	C601.834106,806.748657 602.922546,805.277649 600.923340,797.894714 
M1273.601685,792.726624 
	C1271.324341,793.253418 1269.047119,793.780273 1266.769775,794.307129 
	C1266.842407,794.928284 1266.915039,795.549438 1266.987671,796.170593 
	C1268.325073,796.170593 1269.695068,796.360657 1270.994263,796.138123 
	C1277.057983,795.099609 1279.595337,797.201904 1279.665649,803.744202 
	C1276.938354,804.118530 1274.151855,804.385681 1271.411987,804.901550 
	C1266.068726,805.907593 1263.698120,809.501831 1265.152466,814.167236 
	C1266.362183,818.047974 1271.041870,819.745728 1275.519531,818.256042 
	C1277.741455,817.516846 1280.174561,817.412903 1283.525879,816.851929 
	C1283.525879,812.398560 1283.892700,806.827820 1283.425049,801.328064 
	C1282.935181,795.568298 1280.367310,793.519653 1273.601685,792.726624 
M640.362427,804.846558 
	C640.316345,803.849365 640.321411,802.846680 640.216003,801.855774 
	C639.408875,794.269958 633.194275,790.461853 626.193726,793.412720 
	C625.163086,793.847229 624.543823,795.257751 622.907898,797.195312 
	C634.032959,794.905396 636.558350,796.349976 636.298889,803.792786 
	C633.715881,804.142395 630.913330,804.035706 628.527283,804.980835 
	C626.124939,805.932312 623.158997,807.506775 622.257080,809.593628 
	C621.444214,811.474426 622.309570,815.608032 623.838074,816.612366 
	C626.086365,818.089539 629.578491,817.925659 632.547668,817.967102 
	C634.612244,817.995972 636.688416,817.195801 638.759399,816.765991 
	C639.295349,817.129761 639.831360,817.493591 640.367310,817.857361 
	C640.367310,813.823730 640.367310,809.790039 640.362427,804.846558 
M796.689941,812.584473 
	C799.104797,817.230286 802.846680,819.667725 808.095947,818.550903 
	C812.532043,817.607178 815.669861,814.733826 816.015076,810.043396 
	C816.380493,805.079468 816.159119,800.066772 816.041504,795.079041 
	C816.024780,794.368225 815.149170,793.677673 813.750610,791.630188 
	C813.310364,794.755554 812.933289,796.405273 812.874023,798.066345 
	C812.749329,801.557373 812.989197,805.070007 812.712646,808.544556 
	C812.402283,812.444641 810.413391,815.288513 806.166992,815.335815 
	C801.951599,815.382812 799.782166,812.649414 799.416992,808.742737 
	C799.077393,805.110535 799.358093,801.424500 799.191895,797.770081 
	C799.119446,796.176697 798.612854,794.603149 798.303406,793.020569 
	C797.762085,793.065125 797.220764,793.109741 796.679382,793.154297 
	C795.187073,799.311584 795.728149,805.590210 796.689941,812.584473 
M1372.705811,818.862549 
	C1377.764893,818.843140 1381.636597,816.556702 1382.948853,811.737122 
	C1384.440552,806.258728 1385.111450,800.433289 1380.658325,795.731934 
	C1376.245850,791.073364 1368.689453,791.834595 1365.011230,797.084656 
	C1359.761230,804.577881 1363.306274,815.690613 1372.705811,818.862549 
M952.045105,795.458679 
	C948.551758,792.399048 944.600464,791.821472 940.497803,793.823242 
	C936.342163,795.850830 934.619568,799.454224 934.839722,804.043335 
	C934.927246,805.865540 934.768616,807.705383 934.940979,809.516418 
	C935.373352,814.061279 938.980347,817.883301 943.458191,818.708862 
	C947.767517,819.503418 952.906006,817.032166 954.235840,812.546997 
	C955.887512,806.976746 956.655884,801.136169 952.045105,795.458679 
M1425.680542,813.004700 
	C1425.584473,809.015625 1425.857666,804.974792 1425.308228,801.049194 
	C1424.419067,794.695496 1418.528198,791.286499 1412.761841,793.146301 
	C1410.779541,793.785706 1408.597778,793.805847 1405.426880,794.265320 
	C1405.426880,801.030212 1405.384399,808.749939 1405.521118,816.466614 
	C1405.530396,816.989868 1406.888062,817.489197 1407.618652,817.999695 
	C1408.070679,817.204163 1408.883789,816.421814 1408.913452,815.610779 
	C1409.060059,811.620789 1409.004639,807.623169 1409.009521,803.628235 
	C1409.014648,799.403381 1410.730835,796.464294 1415.229248,796.106689 
	C1418.993042,795.807495 1421.782593,799.087463 1421.936523,803.782471 
	C1422.045532,807.108215 1421.822876,810.449585 1422.039429,813.764954 
	C1422.134644,815.224670 1422.953735,816.637085 1423.444214,818.070984 
	C1424.188232,816.665649 1424.932373,815.260315 1425.680542,813.004700 
M662.666748,799.794739 
	C662.714355,803.118347 662.557373,806.460632 662.858643,809.761108 
	C663.284851,814.431335 666.145447,817.318054 670.560120,818.490417 
	C674.893799,819.641174 678.811584,818.225403 680.995850,814.510986 
	C685.004822,807.693420 682.655640,800.377197 681.814819,793.126831 
	C680.432373,794.353516 679.775696,795.705566 679.707825,797.086426 
	C679.520386,800.901794 679.764648,804.742737 679.488708,808.548157 
	C679.205872,812.448914 677.236267,815.331238 672.978149,815.327637 
	C668.515381,815.323853 666.452026,812.374878 666.178467,808.247864 
	C665.936951,804.604980 666.171204,800.932922 666.029297,797.280151 
	C665.973816,795.849976 665.466370,794.437317 665.164734,793.016724 
	C664.587524,793.035278 664.010254,793.053833 663.432983,793.072388 
	C663.177856,795.017151 662.922791,796.961975 662.666748,799.794739 
M767.171143,790.519897 
	C767.195251,785.064392 767.195251,785.064392 775.784790,778.952454 
	C771.346741,775.670105 764.372375,779.189270 764.020935,785.539001 
	C763.480103,795.309998 763.724670,805.128967 763.841309,814.925171 
	C763.854004,815.994629 765.216492,817.048096 765.952942,818.108948 
	C766.421936,817.911926 766.890991,817.714905 767.359985,817.517822 
	C767.359985,810.476868 767.359985,803.435852 767.359985,796.501831 
	C770.605774,795.993408 773.242615,795.580322 775.879395,795.167297 
	C775.810547,794.736572 775.741699,794.305908 775.672791,793.875183 
	C772.878601,793.068970 770.084412,792.262756 767.171143,790.519897 
M1456.306519,792.741882 
	C1455.640747,792.765320 1454.974487,792.780396 1454.309204,792.813538 
	C1450.206177,793.017639 1447.770142,795.290588 1447.187988,799.207153 
	C1446.582153,803.282410 1449.200317,805.244995 1452.701294,806.360168 
	C1453.969482,806.764099 1455.570923,806.874207 1456.404419,807.723145 
	C1457.845215,809.190491 1458.804932,811.130249 1459.966431,812.871887 
	C1458.222290,813.852600 1456.491699,815.598206 1454.730713,815.629333 
	C1452.274048,815.672974 1449.794556,814.435364 1447.355835,813.754639 
	C1447.125366,814.368530 1446.830566,814.757446 1446.927246,814.954712 
	C1449.026123,819.238831 1452.992188,819.053650 1456.765015,818.709106 
	C1460.374268,818.379578 1463.152954,816.532898 1463.543701,812.559021 
	C1463.947632,808.451965 1461.764282,805.991760 1457.970581,804.787292 
	C1456.860352,804.434814 1455.478638,804.373230 1454.700928,803.657410 
	C1453.191528,802.268066 1452.021973,800.509521 1450.711670,798.903870 
	C1452.594727,797.880981 1454.380859,796.387878 1456.389404,795.973877 
	C1458.217896,795.597046 1460.287964,796.391846 1462.251465,796.670105 
	C1462.442505,796.048401 1462.633545,795.426697 1462.824707,794.805054 
	C1460.903564,794.130249 1458.982422,793.455444 1456.306519,792.741882 
M1236.690308,815.328979 
	C1231.301147,813.396423 1229.320801,808.114624 1231.262573,800.852661 
	C1232.482544,796.290344 1235.368652,795.528137 1244.563232,797.340210 
	C1244.322510,793.783691 1242.832886,792.752686 1237.902344,792.730347 
	C1231.302979,792.700439 1228.016113,795.847839 1227.423340,802.763977 
	C1226.569092,812.732849 1229.227295,817.871338 1235.975220,818.738831 
	C1239.820679,819.233154 1243.546753,818.866211 1245.664917,815.448975 
	C1245.470459,814.968567 1245.276001,814.488098 1245.081543,814.007629 
	C1242.557617,814.484009 1240.033691,814.960388 1236.690308,815.328979 
M1309.664185,798.788391 
	C1310.884399,797.853638 1312.010498,796.739624 1313.352051,796.036255 
	C1314.601074,795.381409 1316.079346,795.163818 1317.456665,794.753723 
	C1317.719482,794.089905 1317.982422,793.426086 1318.245361,792.762268 
	C1309.041748,794.837585 1309.237305,789.607666 1309.455811,784.117004 
	C1309.494141,783.153687 1308.300171,782.141418 1307.675293,781.151794 
	C1307.103760,782.165527 1306.050659,783.172546 1306.036377,784.194092 
	C1305.911987,793.153503 1305.784058,802.120850 1306.043701,811.074646 
	C1306.223755,817.282288 1311.365601,819.949036 1317.171387,817.218262 
	C1317.106323,816.899780 1317.094604,816.556396 1316.961182,816.269714 
	C1316.826172,815.979736 1316.563477,815.514709 1316.369141,815.520813 
	C1308.472778,815.767761 1309.602783,810.112732 1309.597412,805.205383 
	C1309.595459,803.380005 1309.613159,801.554565 1309.664185,798.788391 
M715.807007,795.718445 
	C715.466125,794.800842 715.297791,793.231445 714.752197,793.087036 
	C713.070190,792.641846 711.244080,792.740784 708.974182,792.596619 
	C708.974182,789.219971 709.080139,786.246826 708.900024,783.291199 
	C708.854675,782.547607 707.892883,781.859741 707.352295,781.146301 
	C706.723328,781.777466 705.546143,782.409607 705.547302,783.039551 
	C705.566040,793.183044 705.301819,803.358704 706.059875,813.455261 
	C706.415894,818.197327 712.639526,819.743164 717.598999,816.223450 
	C715.700806,815.728943 714.187195,815.706726 713.173218,814.983826 
	C711.624817,813.879944 709.419128,812.399048 709.257874,810.889587 
	C708.752258,806.156555 709.071899,801.335327 709.071899,796.275085 
	C711.395142,796.127563 713.187195,796.013733 715.807007,795.718445 
M842.893799,795.501465 
	C842.890930,790.839355 843.034668,786.169556 842.791992,781.519958 
	C842.722961,780.197266 841.529358,778.933350 840.851440,777.642456 
	C840.257751,778.839050 839.162659,780.029724 839.148438,781.233154 
	C839.016479,792.387451 839.014465,803.544678 839.158569,814.698608 
	C839.173035,815.814087 840.404175,816.913818 841.070679,818.020813 
	C841.674927,816.841614 842.764954,815.677307 842.801392,814.480835 
	C842.983887,808.492065 842.890381,802.494995 842.893799,795.501465 
M1175.303711,790.529846 
	C1175.314209,798.685791 1175.259277,806.842957 1175.417847,814.996033 
	C1175.437622,816.017090 1176.584717,817.016296 1177.209351,818.025757 
	C1177.816284,817.227722 1178.943970,816.434692 1178.951660,815.630859 
	C1179.064941,803.814148 1179.064941,791.995667 1178.954468,780.178833 
	C1178.946411,779.321289 1177.878418,778.473511 1177.303345,777.621216 
	C1176.661621,778.434082 1175.532349,779.208923 1175.465454,780.066589 
	C1175.220215,783.211365 1175.328491,786.383728 1175.303711,790.529846 
M1341.587769,802.595947 
	C1341.554443,800.276245 1341.690308,797.935303 1341.402100,795.647705 
	C1341.291870,794.772278 1340.212158,794.018921 1339.574463,793.209961 
	C1339.044067,793.927673 1338.063965,794.638550 1338.052856,795.364197 
	C1337.939331,802.770630 1337.983398,810.179382 1337.983398,817.587524 
	C1338.542725,817.791809 1339.102051,817.996094 1339.661377,818.200378 
	C1340.296997,816.966858 1341.391602,815.765564 1341.480835,814.493713 
	C1341.735352,810.864502 1341.581055,807.206665 1341.587769,802.595947 
M1205.827026,796.998779 
	C1205.118652,795.731140 1204.410400,794.463562 1203.702026,793.195923 
	C1203.144409,794.428711 1202.140137,795.648865 1202.104858,796.896423 
	C1201.936035,802.874451 1201.951050,808.861877 1202.102051,814.840881 
	C1202.129272,815.919922 1203.097534,816.975220 1203.631470,818.041443 
	C1204.361572,816.977600 1205.680664,815.936401 1205.722656,814.846008 
	C1205.940063,809.203796 1205.830933,803.548950 1205.827026,796.998779 
M737.275818,808.399048 
	C737.305481,810.883789 737.163025,813.389404 737.461792,815.841370 
	C737.560791,816.654785 738.794067,817.330017 739.508789,818.068420 
	C740.003601,817.316101 740.914551,816.571167 740.927917,815.810364 
	C741.044128,809.184265 741.060608,802.554077 740.932007,795.928467 
	C740.914185,795.010681 739.943298,794.111389 739.413635,793.203491 
	C738.719604,794.136780 737.490540,795.034729 737.426147,796.009583 
	C737.175598,799.805298 737.294373,803.625488 737.275818,808.399048 
M860.257935,671.810974 
	C859.219727,672.209961 857.404114,672.454285 857.288269,673.036682 
	C856.932739,674.823975 856.836121,676.887939 857.454468,678.538879 
	C857.721924,679.252869 860.670654,679.907532 861.204224,679.379456 
	C862.303589,678.291260 862.984863,676.411926 863.075012,674.814941 
	C863.126892,673.896912 861.684753,672.894470 860.257935,671.810974 
M994.103210,677.702454 
	C995.601501,678.339600 997.060791,679.243469 998.618896,679.471130 
	C999.173950,679.552246 1000.434448,678.060364 1000.562744,677.169861 
	C1000.887939,674.911804 1001.295959,672.179565 997.884216,671.820618 
	C993.942383,671.405945 993.620789,674.034485 994.103210,677.702454 
z"/>
<path fill="#BAEB62" opacity="1.000000" stroke="none" 
	d="
M1440.924561,866.675171 
	C1441.978760,862.396362 1443.092896,858.549500 1443.879517,854.636719 
	C1444.665039,850.729675 1447.609009,851.115540 1450.063232,851.735657 
	C1450.818604,851.926453 1451.558960,854.937805 1451.200317,856.383118 
	C1418.293579,988.955933 1342.227905,1088.899780 1223.412231,1156.051270 
	C1174.171997,1183.880493 1121.122803,1201.534058 1065.053345,1208.629883 
	C928.742188,1225.880859 806.907837,1191.131958 701.526123,1102.772217 
	C624.566467,1038.243652 575.137390,955.959473 551.227295,858.421265 
	C550.720032,856.352051 547.435425,852.832642 552.305786,851.527222 
	C556.702515,850.348755 557.882812,853.317322 558.744507,856.971252 
	C569.924011,904.372620 588.020081,949.004578 614.039612,990.163818 
	C681.747253,1097.267822 777.383301,1165.760376 900.707153,1194.879395 
	C1056.971924,1231.776367 1227.707153,1178.170776 1335.666138,1059.366211 
	C1386.263672,1003.685791 1421.433960,939.734924 1440.924561,866.675171 
z"/>
<path fill="#BAEB62" opacity="1.000000" stroke="none" 
	d="
M1429.296509,575.561096 
	C1436.710205,598.736328 1444.000977,621.548645 1451.195557,644.391235 
	C1451.757202,646.174561 1453.549927,648.839966 1449.836304,649.471130 
	C1446.837402,649.980774 1444.702148,649.448730 1443.635010,645.629517 
	C1438.933594,628.803589 1434.537476,611.837952 1428.718384,595.387207 
	C1376.224243,446.982361 1245.772095,334.475433 1091.180542,303.886902 
	C935.329285,273.049164 778.530701,322.822906 669.558228,438.314240 
	C614.422241,496.748566 577.698608,565.373291 558.790161,643.499512 
	C558.137695,646.195312 558.387573,649.705505 553.810852,649.640076 
	C550.147583,649.587708 549.753113,648.228821 550.513550,644.998840 
	C556.403748,619.979614 563.958984,595.470215 574.214905,571.915527 
	C629.575012,444.771637 722.711731,357.880951 853.562561,312.101288 
	C914.776062,290.684998 978.094727,283.978424 1042.713501,289.796509 
	C1214.453735,305.259430 1363.919556,415.501801 1428.988159,574.732483 
	C1429.051025,574.886536 1429.095947,575.047913 1429.296509,575.561096 
z"/>
<path fill="#BAEB62" opacity="1.000000" stroke="none" 
	d="
M1138.963135,721.983398 
	C1138.963135,726.464417 1138.963135,730.449341 1138.963135,734.873169 
	C1136.591919,734.873169 1134.537598,734.873169 1132.229980,734.873169 
	C1132.229980,714.139893 1132.229980,693.588379 1132.229980,672.367676 
	C1135.798584,672.367676 1139.155273,671.962585 1142.326416,672.553650 
	C1143.726562,672.814514 1145.306763,674.903198 1145.857178,676.490784 
	C1150.706543,690.479187 1155.337646,704.543274 1160.047729,718.580139 
	C1160.615234,720.272034 1161.267334,721.935669 1162.339722,724.869507 
	C1163.448242,722.066772 1164.151733,720.498901 1164.696411,718.877747 
	C1169.145752,705.631409 1173.887085,692.469971 1177.839722,679.076233 
	C1179.478027,673.525024 1182.089233,671.318420 1187.647827,672.292114 
	C1189.237793,672.570618 1190.879517,672.554077 1192.711426,672.688538 
	C1192.711426,693.551147 1192.711426,713.986206 1192.711426,734.868591 
	C1190.601074,734.868591 1188.549072,734.868591 1186.007324,734.868591 
	C1186.007324,716.804871 1186.007324,698.902466 1186.007324,681.000000 
	C1185.593994,680.872742 1185.180664,680.745544 1184.767334,680.618286 
	C1184.132812,682.124207 1183.409912,683.599548 1182.877197,685.140686 
	C1177.878052,699.606445 1172.850830,714.063110 1167.985352,728.573914 
	C1166.981201,731.568420 1165.864868,733.280334 1162.176758,733.237549 
	C1158.597046,733.196106 1157.800293,731.287659 1156.896240,728.617981 
	C1151.987183,714.122131 1146.983032,699.658325 1141.990723,685.190735 
	C1141.477295,683.702942 1140.825806,682.262695 1140.238403,680.800354 
	C1139.813354,680.858582 1139.388184,680.916809 1138.963135,680.975098 
	C1138.963135,694.479126 1138.963135,707.983215 1138.963135,721.983398 
z"/>
<path fill="#B9EA62" opacity="1.000000" stroke="none" 
	d="
M1347.048096,711.617065 
	C1346.624268,708.443481 1345.976929,705.638367 1346.074463,702.859314 
	C1346.377075,694.250000 1351.677734,689.193542 1361.183472,689.137939 
	C1369.299316,689.090576 1377.420410,689.917725 1385.737061,690.368713 
	C1385.737061,691.889648 1385.737061,693.344177 1385.737061,695.103638 
	C1383.413940,695.452271 1381.200562,695.784424 1379.101929,696.099365 
	C1379.458252,699.452332 1380.078613,702.564087 1380.063965,705.672913 
	C1380.023560,714.227539 1376.680664,718.054199 1368.153198,719.484375 
	C1365.710083,719.894104 1363.022949,719.340454 1360.752319,720.117859 
	C1359.194336,720.651184 1357.383423,722.597046 1357.137085,724.142761 
	C1356.933105,725.422913 1358.654175,728.085693 1359.866699,728.315002 
	C1363.585938,729.018433 1367.471436,728.834961 1371.291260,729.016785 
	C1380.652100,729.462097 1384.558472,732.623657 1385.020874,740.109863 
	C1385.588501,749.300354 1381.781494,754.727112 1372.915161,755.929871 
	C1367.550293,756.657654 1361.998779,756.390686 1356.559692,756.076477 
	C1351.838379,755.803833 1347.661865,753.920654 1346.222046,748.862793 
	C1344.629272,743.267944 1344.821655,737.936401 1349.935303,733.909912 
	C1350.581421,733.401306 1351.137939,732.778992 1350.614990,732.068542 
	C1350.866699,727.679932 1351.118530,723.291260 1351.370361,718.902649 
	C1351.727905,718.929504 1352.085449,718.956360 1352.442993,718.983215 
	C1350.683838,716.654602 1348.924561,714.325989 1347.048096,711.617065 
M1368.963745,750.875610 
	C1369.935669,750.672852 1370.928589,750.540161 1371.875977,750.255615 
	C1376.763062,748.787537 1378.459106,746.089294 1378.081665,740.998840 
	C1377.713379,736.029419 1374.171753,735.365356 1370.368896,735.102905 
	C1367.062866,734.874756 1363.741943,734.839966 1360.426514,734.774353 
	C1355.927368,734.685242 1352.762451,737.332214 1352.205200,741.585815 
	C1351.588501,746.294128 1353.853638,749.708496 1358.676758,750.517944 
	C1361.750610,751.033875 1364.946045,750.825684 1368.963745,750.875610 
M1367.754150,695.134155 
	C1365.440063,695.021423 1363.121338,694.757568 1360.813110,694.830688 
	C1357.153198,694.946472 1354.184326,696.574341 1353.394897,700.295532 
	C1352.498169,704.521790 1351.898804,709.021606 1355.688599,712.377197 
	C1359.423828,715.684448 1369.073608,714.835999 1371.727783,711.146118 
	C1374.946777,706.671082 1373.324829,698.633667 1367.754150,695.134155 
z"/>
<path fill="#BAEB62" opacity="1.000000" stroke="none" 
	d="
M722.015381,729.074707 
	C718.409668,717.509827 721.563293,719.362854 708.993469,719.147583 
	C708.327209,719.136169 707.660095,719.130798 706.994141,719.148621 
	C702.344666,719.272949 696.638428,717.819397 693.360840,720.005371 
	C690.427856,721.961487 689.955627,727.872925 688.794312,732.147034 
	C687.580383,736.615051 684.560669,735.281006 681.018921,734.901794 
	C682.715454,728.648499 684.336975,722.610352 685.992737,716.581604 
	C689.607422,703.419800 693.362305,690.294556 696.781555,677.082275 
	C697.681946,673.603027 699.020203,672.102661 702.813416,672.236816 
	C715.877197,672.698975 712.725586,670.379944 716.160522,682.467346 
	C720.573669,697.997375 724.801331,713.580811 728.985168,729.174377 
	C729.540405,731.243713 731.873901,734.173157 727.722961,735.257263 
	C724.194336,736.178772 723.018921,733.856384 722.543152,730.895691 
	C722.464783,730.407898 722.251282,729.941772 722.015381,729.074707 
M708.860840,680.893311 
	C706.220825,677.542480 703.919678,677.362366 702.931885,680.686462 
	C699.816223,691.171021 696.994934,701.743103 693.948425,712.681030 
	C701.909729,712.681030 709.308838,712.681030 717.569458,712.681030 
	C714.643982,702.042175 711.839783,691.844482 708.860840,680.893311 
z"/>
<path fill="#B7E863" opacity="1.000000" stroke="none" 
	d="
M761.102722,736.033569 
	C756.217468,736.067322 751.749512,736.067322 746.276123,736.067322 
	C746.276123,740.950012 746.361511,745.695862 746.240051,750.436462 
	C746.179565,752.796082 746.739868,755.781311 742.801025,755.759583 
	C738.827454,755.737732 739.475159,752.765686 739.469421,750.394470 
	C739.424377,731.926086 739.424805,713.457397 739.456055,694.988953 
	C739.464722,689.886475 741.291931,688.870850 745.886597,690.978271 
	C747.003296,691.490540 748.548828,691.453918 749.802979,691.201355 
	C752.557434,690.646790 755.212219,689.421631 757.977478,689.128357 
	C767.526978,688.115479 773.623840,692.178040 775.153198,701.652039 
	C776.197937,708.123962 776.195679,714.924438 775.551453,721.468750 
	C774.753357,729.576538 769.964783,734.792847 761.102722,736.033569 
M769.316345,711.555298 
	C769.201233,709.731445 769.200012,707.891663 768.948364,706.086853 
	C768.331970,701.665344 767.188660,696.577942 762.316956,696.073792 
	C757.512939,695.576660 752.445801,697.327209 747.552246,698.365417 
	C746.948486,698.493530 746.356995,700.303101 746.344971,701.340271 
	C746.248291,709.647705 746.185730,717.959595 746.413025,726.261902 
	C746.445618,727.453064 747.969116,729.497192 748.998596,729.630310 
	C760.509949,731.118347 768.573853,731.022034 769.226379,715.488037 
	C769.268188,714.492126 769.292297,713.495361 769.316345,711.555298 
z"/>
<path fill="#B7E863" opacity="1.000000" stroke="none" 
	d="
M787.441162,706.006470 
	C787.442688,701.851074 787.394165,698.192932 787.458862,694.536926 
	C787.535706,690.195312 789.552063,689.033142 793.445068,690.638550 
	C794.862488,691.223083 796.675476,691.283386 798.218079,691.031738 
	C800.819031,690.607361 803.311890,689.403320 805.914124,689.125305 
	C815.463501,688.105286 821.716064,692.122314 823.096436,701.574280 
	C824.133728,708.676697 824.071838,716.179932 823.018433,723.285156 
	C821.769409,731.708984 816.281067,735.646118 807.648682,736.100342 
	C803.531128,736.316956 799.392700,736.137573 794.276001,736.137573 
	C794.276001,740.971619 794.360046,745.715088 794.240601,750.453308 
	C794.180969,752.815857 794.722717,755.790405 790.790771,755.759766 
	C786.821228,755.728821 787.478333,752.757507 787.469971,750.390869 
	C787.418335,735.762268 787.442261,721.133484 787.441162,706.006470 
M794.350342,700.311707 
	C794.321716,707.463501 794.278442,714.615295 794.268433,721.767090 
	C794.257080,729.921021 794.269470,729.939209 802.446960,730.192993 
	C804.104187,730.244446 805.779480,730.209778 807.425598,730.026917 
	C811.626831,729.560303 815.301880,727.349976 815.695801,723.274536 
	C816.387024,716.122498 816.544373,708.770142 815.571228,701.687683 
	C815.235718,699.245911 810.836792,695.569458 808.340027,695.605896 
	C803.713989,695.673340 799.121765,698.059814 794.350342,700.311707 
z"/>
<path fill="#B9EA62" opacity="1.000000" stroke="none" 
	d="
M636.127075,689.015137 
	C647.669800,689.204651 651.906921,692.503174 653.130676,703.362549 
	C653.830200,709.569824 653.746338,716.007385 652.956238,722.206299 
	C651.860474,730.802734 647.320007,735.062317 638.839233,735.815491 
	C632.901367,736.342834 626.854675,736.027893 620.892151,735.596436 
	C619.582275,735.501709 617.363525,733.329590 617.353027,732.098816 
	C617.181519,711.947632 617.296143,691.794006 617.365234,671.640991 
	C617.366211,671.341187 617.607117,671.042175 617.887085,670.392334 
	C619.626831,670.392334 621.509644,670.392334 623.961426,670.392334 
	C623.961426,677.438293 623.961426,684.342468 623.961426,691.428284 
	C628.253662,690.551147 631.966858,689.792358 636.127075,689.015137 
M634.679626,695.135559 
	C624.016785,696.747375 624.016785,696.747375 624.016724,707.225525 
	C624.016724,708.225098 624.016663,709.224670 624.016663,710.224243 
	C624.016663,716.647522 624.016724,723.070862 624.016724,730.003784 
	C628.318848,730.003784 631.796997,730.151489 635.258240,729.972412 
	C641.976440,729.624695 645.187988,727.196838 646.124023,720.551819 
	C646.857849,715.342773 646.969543,709.906311 646.372864,704.683289 
	C645.529175,697.297913 643.034363,695.507141 634.679626,695.135559 
z"/>
<path fill="#B8E963" opacity="1.000000" stroke="none" 
	d="
M928.442017,695.120911 
	C924.208862,695.435242 920.427856,695.736267 916.645081,696.037415 
	C915.412048,692.833008 915.678589,690.682434 919.161621,690.356323 
	C924.785095,689.829834 930.442627,688.996826 936.055420,689.187012 
	C943.925293,689.453613 947.784058,693.647949 948.086426,701.630798 
	C948.363647,708.950439 948.255432,716.285889 948.250916,723.614380 
	C948.249084,726.567383 948.455872,729.178345 951.723938,730.666870 
	C952.617004,731.073669 953.488159,733.255554 953.146729,734.162781 
	C952.802185,735.078430 950.942688,735.430054 949.736389,736.006592 
	C949.608948,736.067566 949.368958,736.037659 949.250854,735.952881 
	C943.255432,731.650757 937.277527,734.832764 931.270386,735.921753 
	C929.484375,736.245483 927.616089,736.221497 925.788391,736.190125 
	C918.253540,736.060791 914.253601,732.333557 913.336182,724.678894 
	C912.399597,716.863953 915.487061,711.626404 922.641479,709.880920 
	C926.817383,708.862000 931.195251,708.690186 935.467224,708.038879 
	C937.848999,707.675720 941.106140,708.895691 941.408569,704.602295 
	C941.759216,699.625183 939.881775,695.989990 935.867065,695.279724 
	C933.603455,694.879211 931.222351,695.143066 928.442017,695.120911 
M928.789612,713.993774 
	C922.444336,715.010132 920.196289,717.082825 920.298035,722.260742 
	C920.369324,725.884216 921.109253,730.171143 925.451050,730.052795 
	C930.682983,729.910278 935.871765,728.132446 941.068909,727.014954 
	C941.215149,726.983521 941.317261,726.412415 941.318481,726.092407 
	C941.334839,721.856323 941.329407,717.620178 941.329407,712.857178 
	C936.853577,713.269531 933.252808,713.601257 928.789612,713.993774 
z"/>
<path fill="#BAEB62" opacity="1.000000" stroke="none" 
	d="
M1321.728516,708.026611 
	C1323.633911,707.807739 1325.090576,707.615540 1326.443970,707.436951 
	C1327.997437,697.912659 1325.522949,694.892273 1316.588867,695.069153 
	C1314.262085,695.115234 1311.935791,695.278259 1309.613525,695.445190 
	C1307.302002,695.611145 1304.995728,695.849365 1302.604126,696.063354 
	C1300.492554,692.470215 1301.598633,690.641602 1305.346436,690.221619 
	C1309.640747,689.740295 1313.946167,689.109009 1318.254028,689.046143 
	C1329.468628,688.882385 1333.761230,693.107239 1333.930786,704.214722 
	C1334.032349,710.871216 1334.020386,717.531250 1333.930786,724.187927 
	C1333.892212,727.050781 1334.361450,729.222168 1337.323608,730.715637 
	C1338.488647,731.302979 1338.741699,733.699402 1339.734741,736.036133 
	C1336.885864,735.880493 1334.853271,736.385254 1333.702759,735.599182 
	C1328.907104,732.322876 1324.316284,733.964844 1319.548584,735.397522 
	C1317.669189,735.962219 1315.614136,736.064453 1313.630127,736.139343 
	C1302.158325,736.572571 1296.158691,728.589172 1299.507080,717.513245 
	C1300.739746,713.435974 1303.498657,710.904358 1307.482056,710.070007 
	C1312.022949,709.119019 1316.675781,708.702271 1321.728516,708.026611 
M1306.900879,717.703613 
	C1305.442871,722.012085 1304.915039,726.272522 1308.971802,729.479492 
	C1311.490967,731.470947 1324.112183,730.053345 1326.257202,727.780701 
	C1326.660400,727.353394 1326.942017,726.630920 1326.950073,726.040283 
	C1327.008057,721.791077 1326.981201,717.540771 1326.981201,711.573486 
	C1319.680054,713.591736 1313.497070,715.300842 1306.900879,717.703613 
z"/>
<path fill="#BAEB62" opacity="1.000000" stroke="none" 
	d="
M1239.945312,728.210876 
	C1241.551636,730.641479 1246.502319,731.062988 1243.996216,734.589355 
	C1243.127197,735.812378 1238.825562,734.606995 1236.092651,734.491028 
	C1233.935913,734.399475 1231.751587,734.003113 1229.630371,734.225952 
	C1225.034912,734.708618 1220.478149,735.994812 1215.894531,736.050049 
	C1209.231812,736.130310 1205.528076,732.240967 1204.499878,725.232483 
	C1203.407227,717.786255 1206.031616,712.089844 1212.183105,710.340210 
	C1216.771606,709.035217 1221.663696,708.805359 1226.415894,708.065735 
	C1228.973022,707.667664 1232.409790,708.862061 1232.520874,704.247925 
	C1232.648560,698.940491 1230.582397,695.394470 1226.117432,695.193542 
	C1221.494019,694.985657 1216.836304,695.576782 1212.191895,695.781311 
	C1210.720947,695.846069 1209.244507,695.791443 1207.552368,695.791443 
	C1206.439819,692.661621 1206.846680,690.563965 1210.551270,690.266785 
	C1216.009033,689.829041 1221.486938,689.001343 1226.930054,689.172791 
	C1234.846069,689.422241 1238.745117,693.502441 1239.115479,701.430786 
	C1239.526001,710.217834 1239.567993,719.022156 1239.945312,728.210876 
M1225.792969,713.321655 
	C1223.322510,713.583069 1220.837646,713.750671 1218.384521,714.125488 
	C1213.432739,714.882080 1211.094482,717.672485 1211.337402,722.667908 
	C1211.515869,726.341370 1212.517578,730.429199 1216.829712,730.184082 
	C1222.031128,729.888428 1227.146729,728.061707 1232.288208,726.850342 
	C1232.424683,726.818176 1232.491211,726.241699 1232.492188,725.918823 
	C1232.505493,721.712769 1232.500977,717.506714 1232.500977,713.221436 
	C1229.949585,713.221436 1228.311279,713.221436 1225.792969,713.321655 
z"/>
<path fill="#BAEB62" opacity="1.000000" stroke="none" 
	d="
M1423.877075,693.086914 
	C1429.116211,698.459351 1429.540771,704.905823 1429.381592,711.502319 
	C1429.312378,714.378540 1427.816040,715.551208 1424.886841,715.503357 
	C1417.723755,715.386169 1410.555420,715.571716 1403.392212,715.456665 
	C1399.691650,715.397278 1398.834106,716.951477 1399.504517,720.391846 
	C1400.819824,727.142029 1403.734619,729.942810 1410.644775,730.129333 
	C1416.270386,730.281189 1421.903320,730.160278 1427.725342,730.160278 
	C1427.725342,731.742981 1427.725342,733.029785 1427.725342,734.366577 
	C1427.192383,734.601013 1426.761353,734.937439 1426.310547,734.966797 
	C1420.005249,735.377380 1413.690674,736.130371 1407.391724,736.022949 
	C1400.239136,735.901062 1395.190063,732.445129 1394.082764,725.477173 
	C1392.879883,717.908386 1392.238159,709.777344 1393.710815,702.359802 
	C1396.367798,688.978455 1411.411499,684.639038 1423.877075,693.086914 
M1414.388672,709.993896 
	C1416.982300,709.993896 1419.575806,709.993896 1422.709351,709.993896 
	C1422.250488,704.500244 1422.609253,699.403931 1417.844482,696.485413 
	C1413.614258,693.894348 1408.829224,693.983276 1404.571045,696.511658 
	C1399.690186,699.409851 1399.260742,704.385254 1399.168457,709.993896 
	C1404.198486,709.993896 1408.809570,709.993896 1414.388672,709.993896 
z"/>
<path fill="#B9EA62" opacity="1.000000" stroke="none" 
	d="
M1011.931030,717.307739 
	C1012.250732,711.753296 1012.157898,706.559448 1013.022949,701.530396 
	C1014.224548,694.545227 1018.894653,690.701050 1025.839722,689.371216 
	C1040.383179,686.586487 1048.993774,692.480652 1050.216431,707.146423 
	C1050.730591,713.313721 1049.868774,719.723877 1048.744507,725.860901 
	C1047.772095,731.169006 1043.804688,734.718079 1038.420166,735.419800 
	C1033.710815,736.033569 1028.742065,736.264893 1024.102417,735.447510 
	C1016.253906,734.064697 1012.932312,728.665527 1011.931030,717.307739 
M1040.478638,698.116699 
	C1032.997803,692.587891 1021.684937,694.075684 1020.406799,701.443604 
	C1019.132568,708.788574 1019.496460,716.606018 1020.371216,724.072388 
	C1021.005615,729.487366 1026.182251,730.254517 1030.930908,730.250122 
	C1035.775757,730.245667 1040.647095,729.836243 1042.129028,724.110107 
	C1044.332886,715.594788 1044.722046,707.046936 1040.478638,698.116699 
z"/>
<path fill="#B9EA62" opacity="1.000000" stroke="none" 
	d="
M591.416016,689.261353 
	C599.796021,690.633057 604.524292,695.481628 605.176636,703.278625 
	C605.751587,710.150146 605.764404,717.229980 604.756714,724.029663 
	C603.627808,731.646667 598.648010,735.346741 590.904602,736.018250 
	C588.265930,736.247070 585.581360,736.246094 582.937866,736.062073 
	C574.893494,735.501892 569.740784,731.886780 568.616333,724.029114 
	C567.574768,716.750488 567.559509,709.117737 568.493286,701.820190 
	C569.482544,694.089966 574.594055,690.186035 582.529297,689.237793 
	C585.310730,688.905396 588.165588,689.186829 591.416016,689.261353 
M574.453430,707.217712 
	C574.700623,712.346069 574.509338,717.544250 575.311951,722.584167 
	C576.207886,728.210022 579.538147,730.159973 586.364929,730.255676 
	C593.672546,730.358154 597.056824,728.591736 597.940247,722.753784 
	C598.801147,717.064575 599.085632,711.144592 598.559937,705.423645 
	C597.829590,697.475525 594.245667,694.881958 586.211548,695.002197 
	C578.602295,695.116150 576.009583,697.655701 574.453430,707.217712 
z"/>
<path fill="#B8E963" opacity="1.000000" stroke="none" 
	d="
M1252.891602,727.745056 
	C1252.892700,716.781128 1252.850342,706.283264 1252.911499,695.785950 
	C1252.946899,689.705200 1254.569702,688.794312 1259.953003,691.397156 
	C1260.790405,691.802063 1262.066162,691.556030 1263.066772,691.312805 
	C1265.001099,690.842590 1266.853638,690.026733 1268.792725,689.586670 
	C1280.674927,686.890137 1287.533447,691.169373 1288.510986,703.223511 
	C1289.354248,713.622498 1288.686035,724.144104 1288.686035,734.606262 
	C1282.978516,735.888245 1282.319092,735.440857 1282.263306,730.123901 
	C1282.179443,722.127075 1282.274048,714.124878 1282.000977,706.134949 
	C1281.859985,702.010925 1281.730469,697.470337 1276.699585,695.849731 
	C1271.091431,694.043091 1265.777832,695.576294 1260.889160,698.283997 
	C1259.969238,698.793579 1259.855103,701.257996 1259.842163,702.824219 
	C1259.755615,713.305969 1259.797241,723.788879 1259.797241,734.131104 
	C1253.721191,736.296814 1253.024658,735.650146 1252.891602,727.745056 
z"/>
<path fill="#B8E963" opacity="1.000000" stroke="none" 
	d="
M1091.184204,714.049011 
	C1090.953003,709.741943 1090.904175,705.904114 1090.446533,702.115662 
	C1089.872925,697.366760 1086.744751,695.278503 1082.165527,695.151245 
	C1080.841797,695.114380 1079.493408,695.183838 1078.188110,695.398071 
	C1069.113647,696.887695 1068.721924,697.362732 1068.719238,706.395935 
	C1068.716919,714.559265 1068.665283,722.723022 1068.744629,730.885559 
	C1068.768677,733.364502 1068.208008,735.678345 1065.425049,735.116882 
	C1064.017700,734.832947 1062.043579,732.478760 1062.011597,731.023621 
	C1061.741699,718.701477 1061.779541,706.369934 1061.913330,694.043274 
	C1061.953247,690.360413 1064.810791,688.990234 1068.161743,690.407043 
	C1069.529907,690.985474 1071.228149,691.151611 1072.716553,690.982056 
	C1074.505981,690.778076 1076.207275,689.902161 1077.989502,689.514771 
	C1089.657593,686.978821 1095.779053,691.205078 1097.542236,702.985413 
	C1097.763550,704.463867 1097.939087,705.965393 1097.945190,707.457031 
	C1097.982178,716.443481 1097.963623,725.430176 1097.963623,734.347595 
	C1092.050903,736.152466 1091.223755,735.613281 1091.193359,730.033813 
	C1091.165161,724.869446 1091.186035,719.704712 1091.184204,714.049011 
z"/>
<path fill="#BAEB62" opacity="1.000000" stroke="none" 
	d="
M963.549377,689.221680 
	C963.811279,684.756836 963.811279,680.646973 963.811279,676.267029 
	C966.583374,676.267029 968.473755,676.267029 970.965942,676.267029 
	C970.965942,680.794495 970.965942,685.033875 970.965942,689.728149 
	C975.817200,689.728149 980.088135,689.728149 984.778503,689.728149 
	C984.778503,691.894104 984.778503,693.594177 984.778503,695.798401 
	C980.296753,695.798401 976.046143,695.798401 971.556946,695.798401 
	C971.556946,706.185913 971.096375,716.105042 971.738708,725.952332 
	C972.094177,731.401367 977.244995,730.218872 980.914734,729.973450 
	C984.796631,729.713745 986.754639,730.717163 985.275940,735.863342 
	C980.947388,735.863342 976.325989,736.258850 971.807678,735.746216 
	C967.722351,735.282715 965.335632,732.155701 965.020203,728.160034 
	C964.471619,721.210632 964.315430,714.227905 964.093323,707.255981 
	C963.977844,703.632202 964.072998,700.001648 964.072998,696.294556 
	C961.866577,696.028503 960.243103,695.832703 958.268188,695.594482 
	C958.169739,693.826477 958.072449,692.080383 957.971924,690.274597 
	C960.014160,690.006470 961.650818,689.791565 963.549377,689.221680 
z"/>
<path fill="#B9EA62" opacity="1.000000" stroke="none" 
	d="
M874.663940,713.867554 
	C874.893250,709.763489 874.775757,706.043884 875.457336,702.477112 
	C877.142639,693.657532 881.982910,689.447876 890.943542,689.118164 
	C895.068420,688.966431 899.258240,689.482056 903.343140,690.154114 
	C904.306458,690.312683 905.374023,692.258606 905.574524,693.513245 
	C905.662170,694.061218 903.710266,695.518555 902.645386,695.560120 
	C899.169434,695.695923 895.647461,695.021423 892.194519,695.298279 
	C886.114014,695.785767 883.046448,698.239746 882.422302,704.071045 
	C881.808167,709.808594 881.825134,715.730164 882.509949,721.458008 
	C883.214417,727.350159 886.406311,729.697876 892.414001,729.975891 
	C896.702209,730.174316 901.006958,730.014465 905.597961,730.014465 
	C905.597961,731.700745 905.597961,733.117188 905.597961,735.825317 
	C899.437195,735.825317 893.309631,736.336853 887.307129,735.689453 
	C880.549011,734.960571 876.821472,730.308533 875.682190,723.732117 
	C875.144897,720.630554 875.002258,717.460510 874.663940,713.867554 
z"/>
<path fill="#B7E863" opacity="1.000000" stroke="none" 
	d="
M555.769043,690.002441 
	C555.788452,701.480042 555.809265,712.458374 555.822388,723.436646 
	C555.824158,724.933411 555.844116,726.433350 555.759399,727.926392 
	C555.121704,739.172058 550.932617,742.659607 539.074463,741.676880 
	C537.648804,738.613647 537.887512,735.959778 541.831116,735.614502 
	C548.108337,735.064880 548.671875,730.771240 548.693665,726.059692 
	C548.764465,710.757019 548.737976,695.453857 548.756958,680.150879 
	C548.758850,678.654907 548.327881,676.885376 548.973267,675.733215 
	C549.758911,674.330750 551.472473,673.448059 552.784668,672.340515 
	C553.763367,673.570251 555.480286,674.739685 555.586670,676.040833 
	C555.951782,680.503357 555.752319,685.011963 555.769043,690.002441 
z"/>
<path fill="#BAEB62" opacity="1.000000" stroke="none" 
	d="
M835.990601,686.004150 
	C835.990601,680.551208 835.990601,675.597046 835.990601,670.349121 
	C838.433411,670.349121 840.330139,670.349121 842.576294,670.349121 
	C842.576294,691.771423 842.576294,713.002991 842.576294,734.804749 
	C840.672119,734.944031 838.653442,735.091675 835.990601,735.286499 
	C835.990601,718.656067 835.990601,702.579529 835.990601,686.004150 
z"/>
<path fill="#B2E363" opacity="1.000000" stroke="none" 
	d="
M554.744995,779.923645 
	C561.029663,784.079712 561.501709,788.998962 556.742188,796.848389 
	C557.872437,798.635376 559.349609,800.289551 560.084290,802.225464 
	C563.437683,811.061340 558.830200,818.213867 549.438599,818.429199 
	C535.688843,818.744507 538.463684,819.304443 538.248047,807.973877 
	C538.102295,800.313416 538.488708,792.635315 538.126770,784.989197 
	C537.892517,780.041748 539.748413,778.360901 544.449585,778.963989 
	C547.733704,779.385254 551.052429,779.537354 554.744995,779.923645 
M557.035461,808.219971 
	C556.977661,800.075867 551.581421,796.230957 543.861511,798.938416 
	C543.123596,799.197144 542.168579,800.216370 542.145203,800.910461 
	C541.991699,805.484070 542.065979,810.065308 542.065979,814.526184 
	C552.420227,815.987061 554.902405,815.012024 557.035461,808.219971 
M549.702576,795.430237 
	C555.168640,794.273499 557.000061,791.784668 555.965332,786.919312 
	C555.058167,782.653748 549.608643,781.121826 542.271545,783.174866 
	C542.271545,787.010071 542.271545,790.894470 542.271545,795.174683 
	C544.653809,795.285339 546.761536,795.383240 549.702576,795.430237 
z"/>
<path fill="#B9EA62" opacity="1.000000" stroke="none" 
	d="
M1454.683594,698.479004 
	C1448.615845,699.958374 1446.403687,703.189941 1446.866455,709.331238 
	C1447.490356,717.609070 1447.021240,725.969238 1447.021240,734.806335 
	C1444.769897,734.806335 1442.760742,734.806335 1440.419189,734.806335 
	C1440.419189,719.920959 1440.419189,705.211548 1440.419189,690.212952 
	C1442.496216,690.212952 1444.271851,690.212952 1446.385010,690.212952 
	C1446.714722,691.649719 1447.067383,693.186340 1447.460205,694.898315 
	C1452.519287,692.852478 1457.504639,690.836487 1462.771118,688.706787 
	C1464.308838,693.236877 1464.265381,696.169800 1459.319458,696.962463 
	C1457.857544,697.196655 1456.463135,697.852356 1454.683594,698.479004 
z"/>
<path fill="#B4E563" opacity="1.000000" stroke="none" 
	d="
M1067.303223,806.469238 
	C1068.218628,809.385132 1069.209961,811.882812 1069.716187,814.475159 
	C1069.942261,815.633606 1069.193481,816.982361 1068.803345,818.590149 
	C1067.629395,817.809631 1067.226196,817.694092 1067.125854,817.452759 
	C1063.641724,809.067017 1061.122437,807.525330 1052.023560,809.468506 
	C1050.443481,809.805908 1049.406494,812.622986 1048.088379,814.270508 
	C1047.111328,815.491821 1046.085327,816.673828 1045.081055,817.873352 
	C1044.958252,816.258484 1044.364380,814.506348 1044.788696,813.050964 
	C1047.717773,803.004822 1050.794189,792.999756 1054.001465,783.038879 
	C1054.488892,781.524963 1055.898926,780.308105 1056.882202,778.953857 
	C1057.978882,780.375244 1059.554810,781.636963 1060.090698,783.245239 
	C1062.610718,790.807922 1064.845215,798.465698 1067.303223,806.469238 
M1059.835327,793.792236 
	C1059.028320,791.440186 1058.221191,789.088196 1057.414062,786.736145 
	C1057.037598,786.805237 1056.661133,786.874329 1056.284668,786.943420 
	C1054.435669,793.070740 1052.586548,799.197998 1050.592041,805.806885 
	C1055.102905,805.806885 1058.849731,805.806885 1063.268066,805.806885 
	C1062.110596,801.796570 1061.065796,798.176331 1059.835327,793.792236 
z"/>
<path fill="#B7E863" opacity="1.000000" stroke="none" 
	d="
M1000.677612,726.857910 
	C1000.670776,728.830139 1001.091003,730.511597 1000.542542,731.771362 
	C999.939514,733.156433 998.445007,734.153320 997.338867,735.319336 
	C996.186584,734.180298 994.055054,733.060425 994.032288,731.899292 
	C993.781616,719.109192 993.739624,706.311096 993.912964,693.518799 
	C993.972656,689.112305 997.178284,689.883240 1000.677612,690.532288 
	C1000.677612,702.558472 1000.677612,714.469849 1000.677612,726.857910 
z"/>
<path fill="#B4E563" opacity="1.000000" stroke="none" 
	d="
M856.471802,731.356934 
	C856.460876,718.811035 856.470886,706.689575 856.447205,694.568115 
	C856.442810,692.304016 856.366577,690.105835 859.534363,690.002380 
	C862.773499,689.896667 863.334290,691.894775 863.326538,694.546204 
	C863.291321,706.667542 863.411926,718.791077 863.174316,730.907898 
	C863.145081,732.399353 861.303772,733.855164 860.302124,735.327515 
	C859.028442,734.145386 857.754822,732.963379 856.471802,731.356934 
z"/>
<path fill="#B2E363" opacity="1.000000" stroke="none" 
	d="
M980.722290,791.372437 
	C980.847595,792.599121 980.965759,793.402344 981.141235,794.595642 
	C982.848694,793.982239 984.388794,792.897400 985.814392,793.031250 
	C988.497559,793.283386 991.633484,793.536743 993.660767,795.034973 
	C999.419434,799.291077 999.083557,812.913696 993.123047,816.818909 
	C991.037659,818.185181 987.893250,818.256531 985.220703,818.307983 
	C982.896851,818.352722 980.556396,817.535767 977.403992,816.946411 
	C977.369446,816.713684 977.033325,815.485107 977.028564,814.255249 
	C976.986633,803.447388 976.945435,792.638672 977.074829,781.832153 
	C977.091614,780.428528 978.077881,779.036438 978.615112,777.638977 
	C979.310242,779.082581 980.444702,780.478638 980.607483,781.979980 
	C980.928284,784.938721 980.710205,787.955933 980.722290,791.372437 
M993.698730,809.721375 
	C993.708435,807.087036 994.104797,804.381409 993.634827,801.835632 
	C992.974854,798.260498 990.674438,795.819336 986.729980,796.113525 
	C983.116333,796.382996 981.112183,798.638062 980.817505,802.263855 
	C980.684082,803.906067 980.782715,805.566040 980.685120,807.212524 
	C980.453796,811.115723 981.721436,814.163086 985.783936,815.128052 
	C989.659485,816.048706 992.050171,813.975342 993.698730,809.721375 
z"/>
<path fill="#B8E963" opacity="1.000000" stroke="none" 
	d="
M1136.028809,829.758545 
	C1134.905884,829.702209 1133.169189,829.284302 1133.171143,828.874573 
	C1133.225708,817.110840 1133.453613,805.347961 1133.672607,793.585205 
	C1133.674316,793.494812 1133.938232,793.409180 1134.250000,794.118713 
	C1136.343506,793.807495 1138.437744,793.501282 1140.529907,793.181335 
	C1141.021851,793.106140 1141.502563,792.955261 1141.995117,792.889282 
	C1146.456055,792.292236 1149.830811,793.974731 1152.013428,797.876160 
	C1154.398804,802.140259 1153.584961,812.184570 1150.562744,815.494751 
	C1147.548950,818.795776 1143.952881,819.812866 1139.745483,817.825317 
	C1139.037231,817.490845 1138.286011,817.247070 1136.853638,816.687561 
	C1136.627075,821.271912 1136.426270,825.336365 1136.028809,829.758545 
M1141.826416,796.079712 
	C1136.612793,798.631348 1134.197144,808.203552 1137.779541,812.704529 
	C1140.160278,815.695801 1143.353516,816.579834 1146.587158,814.249023 
	C1150.976074,811.085449 1150.170654,806.247864 1149.554199,801.858276 
	C1149.040894,798.201416 1146.561646,796.012817 1141.826416,796.079712 
z"/>
<path fill="#B8E963" opacity="1.000000" stroke="none" 
	d="
M1102.638306,818.782227 
	C1100.018677,818.314453 1097.793823,817.796631 1094.880493,817.118469 
	C1094.518921,821.635437 1094.155640,826.173462 1093.744751,831.306641 
	C1090.625610,828.535950 1089.648315,802.546448 1091.408691,794.334473 
	C1094.292114,793.836182 1096.935791,792.766052 1099.381836,793.108032 
	C1102.609741,793.559387 1106.581665,794.242188 1108.652344,796.366699 
	C1114.697876,802.568909 1111.120728,815.593018 1102.638306,818.782227 
M1097.645996,796.925415 
	C1094.454712,800.198364 1092.992920,807.881592 1095.057373,811.677124 
	C1096.886475,815.040039 1099.815430,816.343811 1103.480103,814.882446 
	C1107.408447,813.315857 1109.252441,806.750305 1107.318726,801.105408 
	C1105.848999,796.815552 1102.860229,795.053589 1097.645996,796.925415 
z"/>
<path fill="#B2E363" opacity="1.000000" stroke="none" 
	d="
M906.395020,782.377136 
	C904.242737,781.917175 902.523193,781.487976 900.803711,781.058777 
	C900.927185,780.391846 901.050659,779.724915 901.174194,779.057983 
	C904.247131,779.057983 907.362000,778.773560 910.369446,779.217346 
	C911.377075,779.366089 912.829895,781.356506 912.854858,782.531189 
	C913.042358,791.329041 913.102661,800.139221 912.825073,808.933533 
	C912.684143,813.395508 910.479980,816.853516 905.829773,818.181091 
	C901.018066,819.554749 896.518372,819.030090 892.933105,815.346375 
	C891.752136,814.132935 891.112000,812.216492 890.704895,810.507202 
	C890.523804,809.746887 891.532654,808.703125 892.001343,807.787964 
	C892.693542,808.331787 893.837708,808.762512 894.006653,809.437317 
	C895.383972,814.939331 899.320190,815.927124 904.015198,814.970215 
	C908.854492,813.983826 909.186707,809.996948 909.182739,805.999207 
	C909.176270,799.521484 909.315613,793.038696 909.071655,786.570129 
	C909.018372,785.156555 907.611328,783.793945 906.395020,782.377136 
z"/>
<path fill="#B4E563" opacity="1.000000" stroke="none" 
	d="
M601.076904,798.248779 
	C602.922546,805.277649 601.834106,806.748657 595.126892,806.856934 
	C592.470886,806.899841 589.814209,806.925659 587.159668,807.013184 
	C586.697327,807.028381 586.243896,807.312378 585.326721,807.632874 
	C586.133301,818.966431 595.131287,814.295532 602.293213,814.777649 
	C597.203308,819.501160 592.760437,819.575195 588.191162,817.890015 
	C583.839172,816.285034 581.672302,812.958313 581.735352,808.257263 
	C581.753113,806.928772 581.777222,805.596680 581.705688,804.271240 
	C581.423279,799.036194 583.479919,795.162231 588.458130,793.264893 
	C593.091431,791.499023 597.179565,793.134155 601.076904,798.248779 
M592.487915,804.093933 
	C594.268433,804.003235 596.048950,803.912476 599.564209,803.733398 
	C597.758850,800.711060 596.998657,797.883484 595.217224,796.893311 
	C593.433350,795.901855 590.165283,795.960754 588.402039,797.003601 
	C586.607300,798.065125 585.853943,800.887390 583.963257,804.094421 
	C587.675598,804.094421 589.626282,804.094421 592.487915,804.093933 
z"/>
<path fill="#B2E363" opacity="1.000000" stroke="none" 
	d="
M1273.981567,792.728455 
	C1280.367310,793.519653 1282.935181,795.568298 1283.425049,801.328064 
	C1283.892700,806.827820 1283.525879,812.398560 1283.525879,816.851929 
	C1280.174561,817.412903 1277.741455,817.516846 1275.519531,818.256042 
	C1271.041870,819.745728 1266.362183,818.047974 1265.152466,814.167236 
	C1263.698120,809.501831 1266.068726,805.907593 1271.411987,804.901550 
	C1274.151855,804.385681 1276.938354,804.118530 1279.665649,803.744202 
	C1279.595337,797.201904 1277.057983,795.099609 1270.994263,796.138123 
	C1269.695068,796.360657 1268.325073,796.170593 1266.987671,796.170593 
	C1266.915039,795.549438 1266.842407,794.928284 1266.769775,794.307129 
	C1269.047119,793.780273 1271.324341,793.253418 1273.981567,792.728455 
M1279.701660,807.621338 
	C1276.992188,807.605835 1274.110840,807.033875 1271.641357,807.796143 
	C1270.290405,808.213196 1268.584106,811.186707 1268.948364,812.461731 
	C1269.353760,813.880737 1272.020386,815.687866 1273.543579,815.551270 
	C1277.444946,815.201538 1280.298706,813.031189 1279.701660,807.621338 
z"/>
<path fill="#B7E863" opacity="1.000000" stroke="none" 
	d="
M640.364868,805.301453 
	C640.367310,809.790039 640.367310,813.823730 640.367310,817.857361 
	C639.831360,817.493591 639.295349,817.129761 638.759399,816.765991 
	C636.688416,817.195801 634.612244,817.995972 632.547668,817.967102 
	C629.578491,817.925659 626.086365,818.089539 623.838074,816.612366 
	C622.309570,815.608032 621.444214,811.474426 622.257080,809.593628 
	C623.158997,807.506775 626.124939,805.932312 628.527283,804.980835 
	C630.913330,804.035706 633.715881,804.142395 636.298889,803.792786 
	C636.558350,796.349976 634.032959,794.905396 622.907898,797.195312 
	C624.543823,795.257751 625.163086,793.847229 626.193726,793.412720 
	C633.194275,790.461853 639.408875,794.269958 640.216003,801.855774 
	C640.321411,802.846680 640.316345,803.849365 640.364868,805.301453 
M636.020081,812.251282 
	C636.294495,810.625793 636.568909,809.000366 636.916077,806.943726 
	C634.675354,806.943726 633.068420,806.549255 631.791382,807.030396 
	C629.515991,807.887634 627.254272,809.054016 625.418579,810.602844 
	C624.988770,810.965515 626.115723,814.526978 626.816467,814.629272 
	C629.181946,814.974426 631.687378,814.495056 634.116577,814.164062 
	C634.651001,814.091309 635.091858,813.331238 636.020081,812.251282 
z"/>
<path fill="#B8E963" opacity="1.000000" stroke="none" 
	d="
M796.522705,812.229248 
	C795.728149,805.590210 795.187073,799.311584 796.679382,793.154297 
	C797.220764,793.109741 797.762085,793.065125 798.303406,793.020569 
	C798.612854,794.603149 799.119446,796.176697 799.191895,797.770081 
	C799.358093,801.424500 799.077393,805.110535 799.416992,808.742737 
	C799.782166,812.649414 801.951599,815.382812 806.166992,815.335815 
	C810.413391,815.288513 812.402283,812.444641 812.712646,808.544556 
	C812.989197,805.070007 812.749329,801.557373 812.874023,798.066345 
	C812.933289,796.405273 813.310364,794.755554 813.750610,791.630188 
	C815.149170,793.677673 816.024780,794.368225 816.041504,795.079041 
	C816.159119,800.066772 816.380493,805.079468 816.015076,810.043396 
	C815.669861,814.733826 812.532043,817.607178 808.095947,818.550903 
	C802.846680,819.667725 799.104797,817.230286 796.522705,812.229248 
z"/>
<path fill="#B2E363" opacity="1.000000" stroke="none" 
	d="
M1372.316895,818.814819 
	C1363.306274,815.690613 1359.761230,804.577881 1365.011230,797.084656 
	C1368.689453,791.834595 1376.245850,791.073364 1380.658325,795.731934 
	C1385.111450,800.433289 1384.440552,806.258728 1382.948853,811.737122 
	C1381.636597,816.556702 1377.764893,818.843140 1372.316895,818.814819 
M1366.919067,802.055725 
	C1366.884033,802.715637 1366.826782,803.375183 1366.817505,804.035461 
	C1366.707520,811.848145 1368.652588,815.255066 1373.275146,815.363464 
	C1378.094849,815.476501 1380.274536,811.618347 1380.077637,803.828857 
	C1379.983032,800.090698 1378.607178,797.194824 1374.954712,796.279297 
	C1370.934204,795.271484 1368.350830,797.428345 1366.919067,802.055725 
z"/>
<path fill="#B7E863" opacity="1.000000" stroke="none" 
	d="
M952.304810,795.718750 
	C956.655884,801.136169 955.887512,806.976746 954.235840,812.546997 
	C952.906006,817.032166 947.767517,819.503418 943.458191,818.708862 
	C938.980347,817.883301 935.373352,814.061279 934.940979,809.516418 
	C934.768616,807.705383 934.927246,805.865540 934.839722,804.043335 
	C934.619568,799.454224 936.342163,795.850830 940.497803,793.823242 
	C944.600464,791.821472 948.551758,792.399048 952.304810,795.718750 
M938.820129,800.654846 
	C938.797424,803.943909 937.996826,807.503113 939.013672,810.431274 
	C939.744385,812.535645 942.885315,815.054321 944.980652,815.081177 
	C947.070374,815.108032 949.802063,812.642334 951.119690,810.554626 
	C952.212524,808.823120 952.351379,805.816223 951.664612,803.799500 
	C950.737793,801.077942 949.155701,797.840698 946.871704,796.502014 
	C943.819397,794.712891 940.846375,796.761414 938.820129,800.654846 
z"/>
<path fill="#B0E163" opacity="1.000000" stroke="none" 
	d="
M1425.678467,813.429810 
	C1424.932373,815.260315 1424.188232,816.665649 1423.444214,818.070984 
	C1422.953735,816.637085 1422.134644,815.224670 1422.039429,813.764954 
	C1421.822876,810.449585 1422.045532,807.108215 1421.936523,803.782471 
	C1421.782593,799.087463 1418.993042,795.807495 1415.229248,796.106689 
	C1410.730835,796.464294 1409.014648,799.403381 1409.009521,803.628235 
	C1409.004639,807.623169 1409.060059,811.620789 1408.913452,815.610779 
	C1408.883789,816.421814 1408.070679,817.204163 1407.618652,817.999695 
	C1406.888062,817.489197 1405.530396,816.989868 1405.521118,816.466614 
	C1405.384399,808.749939 1405.426880,801.030212 1405.426880,794.265320 
	C1408.597778,793.805847 1410.779541,793.785706 1412.761841,793.146301 
	C1418.528198,791.286499 1424.419067,794.695496 1425.308228,801.049194 
	C1425.857666,804.974792 1425.584473,809.015625 1425.678467,813.429810 
z"/>
<path fill="#B8E963" opacity="1.000000" stroke="none" 
	d="
M662.667236,799.350708 
	C662.922791,796.961975 663.177856,795.017151 663.432983,793.072388 
	C664.010254,793.053833 664.587524,793.035278 665.164734,793.016724 
	C665.466370,794.437317 665.973816,795.849976 666.029297,797.280151 
	C666.171204,800.932922 665.936951,804.604980 666.178467,808.247864 
	C666.452026,812.374878 668.515381,815.323853 672.978149,815.327637 
	C677.236267,815.331238 679.205872,812.448914 679.488708,808.548157 
	C679.764648,804.742737 679.520386,800.901794 679.707825,797.086426 
	C679.775696,795.705566 680.432373,794.353516 681.814819,793.126831 
	C682.655640,800.377197 685.004822,807.693420 680.995850,814.510986 
	C678.811584,818.225403 674.893799,819.641174 670.560120,818.490417 
	C666.145447,817.318054 663.284851,814.431335 662.858643,809.761108 
	C662.557373,806.460632 662.714355,803.118347 662.667236,799.350708 
z"/>
<path fill="#B9EA62" opacity="1.000000" stroke="none" 
	d="
M767.230652,790.988220 
	C770.084412,792.262756 772.878601,793.068970 775.672791,793.875183 
	C775.741699,794.305908 775.810547,794.736572 775.879395,795.167297 
	C773.242615,795.580322 770.605774,795.993408 767.359985,796.501831 
	C767.359985,803.435852 767.359985,810.476868 767.359985,817.517822 
	C766.890991,817.714905 766.421936,817.911926 765.952942,818.108948 
	C765.216492,817.048096 763.854004,815.994629 763.841309,814.925171 
	C763.724670,805.128967 763.480103,795.309998 764.020935,785.539001 
	C764.372375,779.189270 771.346741,775.670105 775.784790,778.952454 
	C767.195251,785.064392 767.195251,785.064392 767.230652,790.988220 
z"/>
<path fill="#B2E363" opacity="1.000000" stroke="none" 
	d="
M1456.683838,792.761292 
	C1458.982422,793.455444 1460.903564,794.130249 1462.824707,794.805054 
	C1462.633545,795.426697 1462.442505,796.048401 1462.251465,796.670105 
	C1460.287964,796.391846 1458.217896,795.597046 1456.389404,795.973877 
	C1454.380859,796.387878 1452.594727,797.880981 1450.711670,798.903931 
	C1452.021973,800.509521 1453.191528,802.268066 1454.700928,803.657410 
	C1455.478638,804.373230 1456.860352,804.434814 1457.970581,804.787292 
	C1461.764282,805.991760 1463.947632,808.451965 1463.543701,812.559021 
	C1463.152954,816.532898 1460.374268,818.379578 1456.765015,818.709106 
	C1452.992188,819.053650 1449.026123,819.238831 1446.927246,814.954712 
	C1446.830566,814.757446 1447.125366,814.368530 1447.355835,813.754639 
	C1449.794556,814.435364 1452.274048,815.672974 1454.730713,815.629333 
	C1456.491699,815.598206 1458.222290,813.852600 1459.966431,812.871826 
	C1458.804932,811.130249 1457.845215,809.190491 1456.404419,807.723145 
	C1455.570923,806.874207 1453.969482,806.764099 1452.701294,806.360168 
	C1449.200317,805.244995 1446.582153,803.282410 1447.187988,799.207153 
	C1447.770142,795.290588 1450.206177,793.017639 1454.309204,792.813538 
	C1454.974487,792.780396 1455.640747,792.765320 1456.683838,792.761292 
z"/>
<path fill="#B2E363" opacity="1.000000" stroke="none" 
	d="
M1237.100098,815.382874 
	C1240.033691,814.960388 1242.557617,814.484009 1245.081543,814.007629 
	C1245.276001,814.488098 1245.470459,814.968567 1245.664917,815.448975 
	C1243.546753,818.866211 1239.820679,819.233154 1235.975220,818.738831 
	C1229.227295,817.871338 1226.569092,812.732849 1227.423340,802.763977 
	C1228.016113,795.847839 1231.302979,792.700439 1237.902344,792.730347 
	C1242.832886,792.752686 1244.322510,793.783691 1244.563232,797.340210 
	C1235.368652,795.528137 1232.482544,796.290344 1231.262573,800.852661 
	C1229.320801,808.114624 1231.301147,813.396423 1237.100098,815.382874 
z"/>
<path fill="#B0E163" opacity="1.000000" stroke="none" 
	d="
M1309.643066,799.258789 
	C1309.613159,801.554565 1309.595459,803.380005 1309.597412,805.205383 
	C1309.602783,810.112732 1308.472778,815.767761 1316.369141,815.520813 
	C1316.563477,815.514709 1316.826172,815.979736 1316.961182,816.269714 
	C1317.094604,816.556396 1317.106323,816.899780 1317.167358,817.219116 
	C1311.365601,819.949036 1306.223755,817.282288 1306.043701,811.074646 
	C1305.784058,802.120850 1305.911987,793.153503 1306.036377,784.194092 
	C1306.050659,783.172546 1307.103760,782.165527 1307.675293,781.151733 
	C1308.300171,782.141418 1309.494141,783.153687 1309.455811,784.117004 
	C1309.237305,789.607666 1309.041748,794.837585 1318.245361,792.762268 
	C1317.982422,793.426086 1317.719482,794.089905 1317.456665,794.753723 
	C1316.079346,795.163818 1314.601074,795.381409 1313.352051,796.036255 
	C1312.010498,796.739624 1310.884399,797.853638 1309.643066,799.258789 
z"/>
<path fill="#B0E163" opacity="1.000000" stroke="none" 
	d="
M715.393066,795.809204 
	C713.187195,796.013733 711.395142,796.127563 709.071899,796.275085 
	C709.071899,801.335327 708.752258,806.156555 709.257874,810.889587 
	C709.419128,812.399048 711.624817,813.879944 713.173218,814.983826 
	C714.187195,815.706726 715.700806,815.728943 717.598999,816.223450 
	C712.639526,819.743164 706.415894,818.197327 706.059875,813.455261 
	C705.301819,803.358704 705.566040,793.183044 705.547302,783.039551 
	C705.546143,782.409607 706.723328,781.777466 707.352295,781.146240 
	C707.892883,781.859741 708.854675,782.547607 708.900024,783.291199 
	C709.080139,786.246826 708.974182,789.219971 708.974182,792.596619 
	C711.244080,792.740784 713.070190,792.641846 714.752197,793.087036 
	C715.297791,793.231445 715.466125,794.800842 715.393066,795.809204 
z"/>
<path fill="#ADDE64" opacity="1.000000" stroke="none" 
	d="
M842.893799,796.001099 
	C842.890381,802.494995 842.983887,808.492065 842.801392,814.480835 
	C842.764954,815.677307 841.674927,816.841614 841.070679,818.020813 
	C840.404175,816.913818 839.173035,815.814087 839.158569,814.698608 
	C839.014465,803.544678 839.016479,792.387451 839.148438,781.233154 
	C839.162659,780.029724 840.257751,778.839050 840.851440,777.642456 
	C841.529358,778.933350 842.722961,780.197266 842.791992,781.519958 
	C843.034668,786.169556 842.890930,790.839355 842.893799,796.001099 
z"/>
<path fill="#ADDE64" opacity="1.000000" stroke="none" 
	d="
M1175.303711,790.037720 
	C1175.328491,786.383728 1175.220215,783.211365 1175.465454,780.066589 
	C1175.532349,779.208923 1176.661621,778.434082 1177.303223,777.621216 
	C1177.878418,778.473511 1178.946411,779.321289 1178.954468,780.178833 
	C1179.064941,791.995667 1179.064941,803.814148 1178.951660,815.630859 
	C1178.943970,816.434692 1177.816284,817.227722 1177.209351,818.025757 
	C1176.584717,817.016296 1175.437622,816.017090 1175.417847,814.996033 
	C1175.259277,806.842957 1175.314209,798.685791 1175.303711,790.037720 
z"/>
<path fill="#ADDE64" opacity="1.000000" stroke="none" 
	d="
M1341.587646,803.078003 
	C1341.581055,807.206665 1341.735352,810.864502 1341.480835,814.493713 
	C1341.391602,815.765564 1340.296997,816.966858 1339.661377,818.200378 
	C1339.102051,817.996094 1338.542725,817.791809 1337.983398,817.587524 
	C1337.983398,810.179382 1337.939331,802.770630 1338.052856,795.364197 
	C1338.063965,794.638550 1339.044067,793.927673 1339.574463,793.209961 
	C1340.212158,794.018921 1341.291870,794.772278 1341.402100,795.647705 
	C1341.690308,797.935303 1341.554443,800.276245 1341.587646,803.078003 
z"/>
<path fill="#ADDE64" opacity="1.000000" stroke="none" 
	d="
M1205.831299,797.448669 
	C1205.830933,803.548950 1205.940063,809.203796 1205.722656,814.846008 
	C1205.680664,815.936401 1204.361572,816.977600 1203.631470,818.041443 
	C1203.097534,816.975220 1202.129272,815.919922 1202.102051,814.840881 
	C1201.951050,808.861877 1201.936035,802.874451 1202.104858,796.896423 
	C1202.140137,795.648865 1203.144409,794.428711 1203.702026,793.195923 
	C1204.410400,794.463562 1205.118652,795.731140 1205.831299,797.448669 
z"/>
<path fill="#ADDE64" opacity="1.000000" stroke="none" 
	d="
M737.275818,807.917786 
	C737.294373,803.625488 737.175598,799.805298 737.426147,796.009583 
	C737.490540,795.034729 738.719604,794.136780 739.413635,793.203491 
	C739.943298,794.111389 740.914185,795.010681 740.932007,795.928467 
	C741.060608,802.554077 741.044128,809.184265 740.927917,815.810364 
	C740.914551,816.571167 740.003601,817.316101 739.508789,818.068420 
	C738.794067,817.330017 737.560791,816.654785 737.461792,815.841370 
	C737.163025,813.389404 737.305481,810.883789 737.275818,807.917786 
z"/>
<path fill="#B8E963" opacity="1.000000" stroke="none" 
	d="
M860.586548,671.870483 
	C861.684753,672.894470 863.126892,673.896912 863.075012,674.814941 
	C862.984863,676.411926 862.303589,678.291260 861.204224,679.379456 
	C860.670654,679.907532 857.721924,679.252869 857.454468,678.538879 
	C856.836121,676.887939 856.932739,674.823975 857.288269,673.036682 
	C857.404114,672.454285 859.219727,672.209961 860.586548,671.870483 
z"/>
<path fill="#B0E163" opacity="1.000000" stroke="none" 
	d="
M994.014221,677.355591 
	C993.620789,674.034485 993.942383,671.405945 997.884216,671.820618 
	C1001.295959,672.179565 1000.887939,674.911804 1000.562744,677.169861 
	C1000.434448,678.060364 999.173950,679.552246 998.618896,679.471130 
	C997.060791,679.243469 995.601501,678.339600 994.014221,677.355591 
z"/>
<path fill="#3E6F71" opacity="1.000000" stroke="none" 
	d="
M1368.525391,750.908936 
	C1364.946045,750.825684 1361.750610,751.033875 1358.676758,750.517944 
	C1353.853638,749.708496 1351.588501,746.294128 1352.205200,741.585815 
	C1352.762451,737.332214 1355.927368,734.685242 1360.426514,734.774353 
	C1363.741943,734.839966 1367.062866,734.874756 1370.368896,735.102905 
	C1374.171753,735.365356 1377.713379,736.029419 1378.081665,740.998840 
	C1378.459106,746.089294 1376.763062,748.787537 1371.875977,750.255615 
	C1370.928589,750.540161 1369.935669,750.672852 1368.525391,750.908936 
z"/>
<path fill="#3E6F71" opacity="1.000000" stroke="none" 
	d="
M1368.152832,695.270142 
	C1373.324829,698.633667 1374.946777,706.671082 1371.727783,711.146118 
	C1369.073608,714.835999 1359.423828,715.684448 1355.688599,712.377197 
	C1351.898804,709.021606 1352.498169,704.521790 1353.394897,700.295532 
	C1354.184326,696.574341 1357.153198,694.946472 1360.813110,694.830688 
	C1363.121338,694.757568 1365.440063,695.021423 1368.152832,695.270142 
z"/>
<path fill="#3F7071" opacity="1.000000" stroke="none" 
	d="
M708.948242,681.270020 
	C711.839783,691.844482 714.643982,702.042175 717.569458,712.681030 
	C709.308838,712.681030 701.909729,712.681030 693.948425,712.681030 
	C696.994934,701.743103 699.816223,691.171021 702.931885,680.686462 
	C703.919678,677.362366 706.220825,677.542480 708.948242,681.270020 
z"/>
<path fill="#3F7071" opacity="1.000000" stroke="none" 
	d="
M769.320496,712.027161 
	C769.292297,713.495361 769.268188,714.492126 769.226379,715.488037 
	C768.573853,731.022034 760.509949,731.118347 748.998596,729.630310 
	C747.969116,729.497192 746.445618,727.453064 746.413025,726.261902 
	C746.185730,717.959595 746.248291,709.647705 746.344971,701.340271 
	C746.356995,700.303101 746.948486,698.493530 747.552246,698.365417 
	C752.445801,697.327209 757.512939,695.576660 762.316956,696.073792 
	C767.188660,696.577942 768.331970,701.665344 768.948364,706.086853 
	C769.200012,707.891663 769.201233,709.731445 769.320496,712.027161 
z"/>
<path fill="#3F7071" opacity="1.000000" stroke="none" 
	d="
M794.432922,699.896118 
	C799.121765,698.059814 803.713989,695.673340 808.340027,695.605896 
	C810.836792,695.569458 815.235718,699.245911 815.571228,701.687683 
	C816.544373,708.770142 816.387024,716.122498 815.695801,723.274536 
	C815.301880,727.349976 811.626831,729.560303 807.425598,730.026917 
	C805.779480,730.209778 804.104187,730.244446 802.446960,730.192993 
	C794.269470,729.939209 794.257080,729.921021 794.268433,721.767090 
	C794.278442,714.615295 794.321716,707.463501 794.432922,699.896118 
z"/>
<path fill="#3D6E71" opacity="1.000000" stroke="none" 
	d="
M635.097717,695.116699 
	C643.034363,695.507141 645.529175,697.297913 646.372864,704.683289 
	C646.969543,709.906311 646.857849,715.342773 646.124023,720.551819 
	C645.187988,727.196838 641.976440,729.624695 635.258240,729.972412 
	C631.796997,730.151489 628.318848,730.003784 624.016724,730.003784 
	C624.016724,723.070862 624.016663,716.647522 624.016663,710.224243 
	C624.016663,709.224670 624.016724,708.225098 624.016724,707.225525 
	C624.016785,696.747375 624.016785,696.747375 635.097717,695.116699 
z"/>
<path fill="#3F7071" opacity="1.000000" stroke="none" 
	d="
M929.220825,713.963379 
	C933.252808,713.601257 936.853577,713.269531 941.329407,712.857178 
	C941.329407,717.620178 941.334839,721.856323 941.318481,726.092407 
	C941.317261,726.412415 941.215149,726.983521 941.068909,727.014954 
	C935.871765,728.132446 930.682983,729.910278 925.451050,730.052795 
	C921.109253,730.171143 920.369324,725.884216 920.298035,722.260742 
	C920.196289,717.082825 922.444336,715.010132 929.220825,713.963379 
z"/>
<path fill="#3F7071" opacity="1.000000" stroke="none" 
	d="
M1307.107422,717.356812 
	C1313.497070,715.300842 1319.680054,713.591736 1326.981201,711.573486 
	C1326.981201,717.540771 1327.008057,721.791077 1326.950073,726.040283 
	C1326.942017,726.630920 1326.660400,727.353394 1326.257202,727.780701 
	C1324.112183,730.053345 1311.490967,731.470947 1308.971802,729.479492 
	C1304.915039,726.272522 1305.442871,722.012085 1307.107422,717.356812 
z"/>
<path fill="#427370" opacity="1.000000" stroke="none" 
	d="
M1226.232910,713.271545 
	C1228.311279,713.221436 1229.949585,713.221436 1232.500977,713.221436 
	C1232.500977,717.506714 1232.505493,721.712769 1232.492188,725.918823 
	C1232.491211,726.241699 1232.424683,726.818176 1232.288208,726.850342 
	C1227.146729,728.061707 1222.031128,729.888428 1216.829712,730.184082 
	C1212.517578,730.429199 1211.515869,726.341370 1211.337402,722.667908 
	C1211.094482,717.672485 1213.432739,714.882080 1218.384521,714.125488 
	C1220.837646,713.750671 1223.322510,713.583069 1226.232910,713.271545 
z"/>
<path fill="#3F7071" opacity="1.000000" stroke="none" 
	d="
M1413.904663,709.993896 
	C1408.809570,709.993896 1404.198486,709.993896 1399.168457,709.993896 
	C1399.260742,704.385254 1399.690186,699.409851 1404.571045,696.511658 
	C1408.829224,693.983276 1413.614258,693.894348 1417.844482,696.485413 
	C1422.609253,699.403931 1422.250488,704.500244 1422.709351,709.993896 
	C1419.575806,709.993896 1416.982300,709.993896 1413.904663,709.993896 
z"/>
<path fill="#3E6F71" opacity="1.000000" stroke="none" 
	d="
M1040.714722,698.435059 
	C1044.722046,707.046936 1044.332886,715.594788 1042.129028,724.110107 
	C1040.647095,729.836243 1035.775757,730.245667 1030.930908,730.250122 
	C1026.182251,730.254517 1021.005615,729.487366 1020.371216,724.072388 
	C1019.496460,716.606018 1019.132568,708.788574 1020.406799,701.443604 
	C1021.684937,694.075684 1032.997803,692.587891 1040.714722,698.435059 
z"/>
<path fill="#3E6F71" opacity="1.000000" stroke="none" 
	d="
M574.530640,706.793030 
	C576.009583,697.655701 578.602295,695.116150 586.211548,695.002197 
	C594.245667,694.881958 597.829590,697.475525 598.559937,705.423645 
	C599.085632,711.144592 598.801147,717.064575 597.940247,722.753784 
	C597.056824,728.591736 593.672546,730.358154 586.364929,730.255676 
	C579.538147,730.159973 576.207886,728.210022 575.311951,722.584167 
	C574.509338,717.544250 574.700623,712.346069 574.530640,706.793030 
z"/>
<path fill="#3D6E71" opacity="1.000000" stroke="none" 
	d="
M557.001465,808.640015 
	C554.902405,815.012024 552.420227,815.987061 542.065979,814.526184 
	C542.065979,810.065308 541.991699,805.484070 542.145203,800.910461 
	C542.168579,800.216370 543.123596,799.197144 543.861511,798.938416 
	C551.581421,796.230957 556.977661,800.075867 557.001465,808.640015 
z"/>
<path fill="#427370" opacity="1.000000" stroke="none" 
	d="
M549.285889,795.455688 
	C546.761536,795.383240 544.653809,795.285339 542.271545,795.174683 
	C542.271545,790.894470 542.271545,787.010071 542.271545,783.174866 
	C549.608643,781.121826 555.058167,782.653748 555.965332,786.919312 
	C557.000061,791.784668 555.168640,794.273499 549.285889,795.455688 
z"/>
<path fill="#427370" opacity="1.000000" stroke="none" 
	d="
M1059.928223,794.174133 
	C1061.065796,798.176331 1062.110596,801.796570 1063.268066,805.806885 
	C1058.849731,805.806885 1055.102905,805.806885 1050.592041,805.806885 
	C1052.586548,799.197998 1054.435669,793.070740 1056.284668,786.943420 
	C1056.661133,786.874329 1057.037598,786.805237 1057.414062,786.736145 
	C1058.221191,789.088196 1059.028320,791.440186 1059.928223,794.174133 
z"/>
<path fill="#3F7071" opacity="1.000000" stroke="none" 
	d="
M993.580872,810.122070 
	C992.050171,813.975342 989.659485,816.048706 985.783936,815.128052 
	C981.721436,814.163086 980.453796,811.115723 980.685120,807.212524 
	C980.782715,805.566040 980.684082,803.906067 980.817505,802.263855 
	C981.112183,798.638062 983.116333,796.382996 986.729980,796.113525 
	C990.674438,795.819336 992.974854,798.260498 993.634827,801.835632 
	C994.104797,804.381409 993.708435,807.087036 993.580872,810.122070 
z"/>
<path fill="#427370" opacity="1.000000" stroke="none" 
	d="
M1142.215942,796.043640 
	C1146.561646,796.012817 1149.040894,798.201416 1149.554199,801.858276 
	C1150.170654,806.247864 1150.976074,811.085449 1146.587158,814.249023 
	C1143.353516,816.579834 1140.160278,815.695801 1137.779541,812.704529 
	C1134.197144,808.203552 1136.612793,798.631348 1142.215942,796.043640 
z"/>
<path fill="#427370" opacity="1.000000" stroke="none" 
	d="
M1097.991821,796.735107 
	C1102.860229,795.053589 1105.848999,796.815552 1107.318726,801.105408 
	C1109.252441,806.750305 1107.408447,813.315857 1103.480103,814.882446 
	C1099.815430,816.343811 1096.886475,815.040039 1095.057373,811.677124 
	C1092.992920,807.881592 1094.454712,800.198364 1097.991821,796.735107 
z"/>
<path fill="#3F7071" opacity="1.000000" stroke="none" 
	d="
M592.032471,804.094177 
	C589.626282,804.094421 587.675598,804.094421 583.963257,804.094421 
	C585.853943,800.887390 586.607300,798.065125 588.402039,797.003601 
	C590.165283,795.960754 593.433350,795.901855 595.217224,796.893311 
	C596.998657,797.883484 597.758850,800.711060 599.564209,803.733398 
	C596.048950,803.912476 594.268433,804.003235 592.032471,804.094177 
z"/>
<path fill="#427370" opacity="1.000000" stroke="none" 
	d="
M1279.822266,808.023804 
	C1280.298706,813.031189 1277.444946,815.201538 1273.543579,815.551270 
	C1272.020386,815.687866 1269.353760,813.880737 1268.948364,812.461731 
	C1268.584106,811.186707 1270.290405,808.213196 1271.641357,807.796143 
	C1274.110840,807.033875 1276.992188,807.605835 1279.822266,808.023804 
z"/>
<path fill="#427370" opacity="1.000000" stroke="none" 
	d="
M635.797974,812.569458 
	C635.091858,813.331238 634.651001,814.091309 634.116577,814.164062 
	C631.687378,814.495056 629.181946,814.974426 626.816467,814.629272 
	C626.115723,814.526978 624.988770,810.965515 625.418579,810.602844 
	C627.254272,809.054016 629.515991,807.887634 631.791382,807.030396 
	C633.068420,806.549255 634.675354,806.943726 636.916077,806.943726 
	C636.568909,809.000366 636.294495,810.625793 635.797974,812.569458 
z"/>
<path fill="#3F7071" opacity="1.000000" stroke="none" 
	d="
M1366.983765,801.636658 
	C1368.350830,797.428345 1370.934204,795.271484 1374.954712,796.279297 
	C1378.607178,797.194824 1379.983032,800.090698 1380.077637,803.828857 
	C1380.274536,811.618347 1378.094849,815.476501 1373.275146,815.363464 
	C1368.652588,815.255066 1366.707520,811.848145 1366.817505,804.035461 
	C1366.826782,803.375183 1366.884033,802.715637 1366.983765,801.636658 
z"/>
<path fill="#427370" opacity="1.000000" stroke="none" 
	d="
M938.958008,800.278381 
	C940.846375,796.761414 943.819397,794.712891 946.871704,796.502014 
	C949.155701,797.840698 950.737793,801.077942 951.664612,803.799500 
	C952.351379,805.816223 952.212524,808.823120 951.119690,810.554626 
	C949.802063,812.642334 947.070374,815.108032 944.980652,815.081177 
	C942.885315,815.054321 939.744385,812.535645 939.013672,810.431274 
	C937.996826,807.503113 938.797424,803.943909 938.958008,800.278381 
z"/>
</svg>